<svg width="32" height="32" viewBox="0 0 32 32" fill="none" xmlns="http://www.w3.org/2000/svg">
<g clip-path="url(#clip0_1_2217)">
<path d="M26.435 30.7114C26.499 31.421 24.7251 32.3256 24.167 31.8826C19.3613 28.0686 12.6428 28.0677 7.83602 31.8795C7.27768 32.3222 5.50171 31.4162 5.56547 30.7066C5.85865 27.4435 4.5564 26.1413 1.29336 26.4344C0.583615 26.4982 -0.322406 24.7221 0.120386 24.1638C3.93218 19.3573 3.93112 12.6396 0.117254 7.83424C-0.325699 7.27613 0.578866 5.50203 1.28852 5.56594C4.55512 5.8601 5.85882 4.55798 5.56547 1.29337C5.5017 0.58363 7.27768 -0.322399 7.83602 0.120375C12.6428 3.93224 19.3613 3.9312 24.167 0.117245C24.7251 -0.325688 26.499 0.578878 26.435 1.28852C26.1406 4.55661 27.444 5.86018 30.7114 5.56595C31.421 5.50205 32.3256 7.276 31.8827 7.83415C28.0698 12.6396 28.0686 19.3574 31.8797 24.1638C32.3224 24.7222 31.4163 26.4982 30.7066 26.4344C27.4427 26.1413 26.1408 27.445 26.435 30.7114Z" fill="currentColor"/>
</g>
<defs>
<clipPath id="clip0_1_2217">
<rect width="32" height="32" fill="white"/>
</clipPath>
</defs>
</svg>
