<svg width="32" height="32" viewBox="0 0 32 32" fill="none" xmlns="http://www.w3.org/2000/svg">
<g clip-path="url(#clip0_1_2237)">
<path fill-rule="evenodd" clip-rule="evenodd" d="M16.0619 14.6965C15.3986 6.4696 8.512 0 0.114286 0C0.114286 8.35878 6.52405 15.2205 14.6965 15.938C6.4696 16.6013 3.67075e-07 23.488 0 31.8858C8.35879 31.8858 15.2205 25.476 15.938 17.3035C16.6013 25.5304 23.488 32 31.8858 32C31.8858 23.6413 25.476 16.7795 17.3035 16.0619C25.5304 15.3987 32 8.512 32 0.114286C23.6413 0.114285 16.7795 6.52405 16.0619 14.6965ZM15.9996 16.0003C15.9999 16.0003 16.0002 16.0005 16.0003 16.0005L16.0005 15.9996C16.0002 15.9996 15.9999 15.9996 15.9996 15.9996C15.9996 15.9999 15.9996 16.0002 15.9996 16.0003Z" fill="currentColor"/>
</g>
<defs>
<clipPath id="clip0_1_2237">
<rect width="32" height="32" fill="white"/>
</clipPath>
</defs>
</svg>
