<svg width="32" height="32" viewBox="0 0 32 32" fill="none" xmlns="http://www.w3.org/2000/svg">
<g clip-path="url(#clip0_1_2195)">
<path fill-rule="evenodd" clip-rule="evenodd" d="M29.5963 12.8075C28.1539 14.3506 25.7899 15.5248 23.3874 16C25.7899 16.4752 28.1539 17.6494 29.5962 19.1925L31.2336 20.9443L28.8792 21.399C26.8053 21.7995 24.2026 21.36 21.9795 20.3322C23.6438 22.129 24.8662 24.4683 25.1262 26.5645L25.4213 28.9442L23.2493 27.9283C21.336 27.0334 19.4888 25.1478 18.2944 23.0096C18.5848 25.4414 18.1987 28.0526 17.1768 29.9013L16.0168 32L14.8568 29.9013C13.8349 28.0526 13.4488 25.4414 13.7393 23.0096C12.5449 25.1478 10.6977 27.0333 8.78436 27.9283L6.61231 28.9442L6.90738 26.5645C7.16732 24.4683 8.38972 22.129 10.0542 20.3322C7.83106 21.36 5.22834 21.7997 3.15444 21.399L0.799988 20.9443L2.43749 19.1925C3.87988 17.6493 6.24394 16.4752 8.64653 16C6.24386 15.5248 3.87988 14.3506 2.43749 12.8075L0.799988 11.0557L3.15444 10.6009C5.22834 10.2004 7.83114 10.64 10.0542 11.6678C8.38972 9.8711 7.16732 7.53162 6.90738 5.43546L6.61231 3.0557L8.78444 4.07174C10.6977 4.96662 12.545 6.85216 13.7394 8.99037C13.4489 6.55851 13.835 3.94731 14.8568 2.09867L16.017 0L17.177 2.09867C18.1989 3.94731 18.5849 6.55851 18.2944 8.99037C19.489 6.85216 21.3362 4.9667 23.2494 4.07174L25.4216 3.0557L25.1264 5.43546C24.8666 7.53162 23.6442 9.8711 21.9797 11.6678C24.2027 10.64 26.8054 10.2003 28.8794 10.6009L31.2339 11.0557L29.5963 12.8075ZM13.0007 18.9914C14.6452 20.6358 17.3115 20.6358 18.956 18.9914C20.6005 17.3469 20.6005 14.6805 18.956 13.036C17.3115 11.3915 14.6452 11.3915 13.0007 13.036C11.3562 14.6805 11.3562 17.3469 13.0007 18.9914Z" fill="currentColor"/>
</g>
<defs>
<clipPath id="clip0_1_2195">
<rect width="32" height="32" fill="white"/>
</clipPath>
</defs>
</svg>
