<svg width="32" height="32" viewBox="0 0 32 32" fill="none" xmlns="http://www.w3.org/2000/svg">
<g clip-path="url(#clip0_1_2193)">
<path d="M23.3874 16C25.7899 15.5248 28.1539 14.3506 29.5963 12.8075L31.2339 11.0557L28.8794 10.6009C26.8054 10.2003 24.2027 10.64 21.9797 11.6678C23.6442 9.8711 24.8666 7.53162 25.1264 5.43546L25.4216 3.0557L23.2494 4.07174C21.3362 4.9667 19.489 6.85216 18.2944 8.99037C18.5849 6.55851 18.1989 3.94731 17.177 2.09867L16.017 0L14.8568 2.09867C13.835 3.94731 13.4489 6.55851 13.7394 8.99037C12.5449 6.85216 10.6977 4.96662 8.78444 4.07174L6.61231 3.0557L6.90738 5.43546C7.16732 7.53162 8.38972 9.8711 10.0542 11.6678C7.83112 10.64 5.22834 10.2004 3.15444 10.6009L0.799988 11.0557L2.43749 12.8075C3.87988 14.3506 6.24386 15.5248 8.64653 16C6.24394 16.4752 3.87988 17.6493 2.43749 19.1925L0.799988 20.9443L3.15444 21.399C5.22834 21.7997 7.83106 21.36 10.0542 20.3322C8.38972 22.129 7.16732 24.4683 6.90738 26.5645L6.61231 28.9442L8.78436 27.9283C10.6977 27.0333 12.5449 25.1478 13.7393 23.0096C13.4488 25.4414 13.8349 28.0526 14.8568 29.9013L16.0168 32L17.1768 29.9013C18.1987 28.0526 18.5848 25.4414 18.2944 23.0096C19.4888 25.1478 21.336 27.0334 23.2493 27.9283L25.4213 28.9442L25.1262 26.5645C24.8662 24.4683 23.6438 22.129 21.9795 20.3322C24.2026 21.36 26.8053 21.7995 28.8792 21.399L31.2336 20.9443L29.5962 19.1925C28.1539 17.6494 25.7899 16.4752 23.3874 16Z" fill="currentColor"/>
</g>
<defs>
<clipPath id="clip0_1_2193">
<rect width="32" height="32" fill="white"/>
</clipPath>
</defs>
</svg>
