<svg width="32" height="32" viewBox="0 0 32 32" fill="none" xmlns="http://www.w3.org/2000/svg">
<g clip-path="url(#clip0_1_2191)">
<path d="M20.3573 17.6493C23.337 18.7773 27.3477 18.5717 29.9013 17.16L32 16L29.9013 14.84C27.3477 13.4284 23.3371 13.2228 20.3573 14.3507L18.1227 15.1965C18.1088 15.1515 18.092 15.108 18.0755 15.0643L20.2474 14.0851C23.152 12.7757 25.8424 9.79438 26.6501 6.99051L27.3138 4.68621L25.0094 5.34987C22.2056 6.15747 19.2243 8.848 17.9147 11.7526L16.9691 13.8503C16.9254 13.8291 16.8818 13.808 16.8366 13.7896L17.6493 11.6426C18.7771 8.66293 18.5715 4.65227 17.16 2.09861L16 0L14.84 2.09867C13.4284 4.65235 13.2228 8.66293 14.3507 11.6427L15.1633 13.7897C15.1181 13.8081 15.0745 13.8291 15.0308 13.8503L14.0851 11.7526C12.7757 8.84808 9.79438 6.15754 6.99051 5.34995L4.68621 4.68629L5.34987 6.99059C6.15747 9.79438 8.848 12.7757 11.7526 14.0852L13.9244 15.0643C13.908 15.1081 13.8911 15.1516 13.8773 15.1966L11.6426 14.3507C8.66293 13.2228 4.65227 13.4285 2.09861 14.84L0 16L2.09867 17.16C4.65235 18.5717 8.66293 18.7773 11.6427 17.6493L13.9818 16.764C14.0002 16.8043 14.0188 16.8448 14.0395 16.8838L11.7526 17.9149C8.84808 19.2243 6.15755 22.2056 5.34995 25.0094L4.68629 27.3138L6.99059 26.6501C9.79438 25.8426 12.7757 23.152 14.0852 20.2475L15.1465 17.8934C15.1857 17.9098 15.2264 17.9232 15.2668 17.9374L14.3507 20.3574C13.2228 23.3371 13.4285 27.3478 14.84 29.9014L16 32.0002L17.1602 29.9014C18.5717 27.3478 18.7773 23.3373 17.6494 20.3574L16.7333 17.9373C16.7736 17.9232 16.8144 17.9098 16.8536 17.8933L17.9149 20.2474C19.2243 23.152 22.2056 25.8424 25.0094 26.6501L27.3138 27.3138L26.6501 25.0094C25.8426 22.2056 23.152 19.2243 20.2475 17.9147L17.9605 16.8838C17.9813 16.8448 17.9998 16.8043 18.0182 16.7638L20.3573 17.6493Z" fill="currentColor"/>
</g>
<defs>
<clipPath id="clip0_1_2191">
<rect width="32" height="32" fill="white"/>
</clipPath>
</defs>
</svg>
