<svg width="32" height="32" viewBox="0 0 32 32" fill="none" xmlns="http://www.w3.org/2000/svg">
<g clip-path="url(#clip0_1_2189)">
<path fill-rule="evenodd" clip-rule="evenodd" d="M2.9487 10.594C2.50333 8.5304 3.08253 6.29005 4.68629 4.68629C6.29006 3.08253 8.5304 2.50333 10.594 2.94869C11.7382 1.17461 13.7319 0 16 0C18.268 0 20.2618 1.17461 21.4061 2.9487C23.4696 2.50333 25.7099 3.08253 27.3138 4.68629C28.9174 6.29006 29.4966 8.5304 29.0514 10.594C30.8254 11.7382 32 13.7319 32 16C32 18.268 30.8254 20.2618 29.0514 21.4061C29.4966 23.4696 28.9174 25.7099 27.3138 27.3138C25.7099 28.9174 23.4696 29.4966 21.4061 29.0514C20.2618 30.8254 18.268 32 16 32C13.7319 32 11.7382 30.8254 10.594 29.0514C8.5304 29.4966 6.29006 28.9174 4.68629 27.3138C3.08253 25.7099 2.50333 23.4696 2.9487 21.4061C1.17461 20.2618 0 18.268 0 16C0 13.7319 1.17461 11.7382 2.9487 10.594ZM11.4329 20.5592C13.9433 23.0694 18.0134 23.0694 20.5238 20.5592C23.0342 18.0488 23.0342 13.9786 20.5238 11.4682C18.0134 8.95781 13.9433 8.95781 11.4329 11.4682C8.9225 13.9786 8.9225 18.0488 11.4329 20.5592Z" fill="currentColor"/>
</g>
<defs>
<clipPath id="clip0_1_2189">
<rect width="32" height="32" fill="white"/>
</clipPath>
</defs>
</svg>
