<svg width="32" height="32" viewBox="0 0 32 32" fill="none" xmlns="http://www.w3.org/2000/svg">
<g clip-path="url(#clip0_1_2187)">
<path fill-rule="evenodd" clip-rule="evenodd" d="M4.68629 4.68629C3.08253 6.29005 2.50333 8.5304 2.9487 10.594C1.17461 11.7382 0 13.7319 0 16C-2.7865e-07 18.268 1.17461 20.2618 2.9487 21.4061C2.50333 23.4696 3.08253 25.7099 4.68629 27.3138C6.29006 28.9174 8.5304 29.4966 10.594 29.0514C11.7382 30.8254 13.7319 32 16 32C18.268 32 20.2618 30.8254 21.4061 29.0514C23.4696 29.4966 25.7099 28.9174 27.3138 27.3138C28.9174 25.7099 29.4966 23.4696 29.0514 21.4061C30.8254 20.2618 32 18.268 32 16C32 13.7319 30.8254 11.7382 29.0514 10.594C29.4966 8.5304 28.9174 6.29006 27.3138 4.68629C25.7099 3.08253 23.4696 2.50333 21.4061 2.9487C20.2618 1.17461 18.268 0 16 0C13.7319 0 11.7382 1.17461 10.594 2.94869C8.5304 2.50333 6.29006 3.08253 4.68629 4.68629Z" fill="currentColor"/>
</g>
<defs>
<clipPath id="clip0_1_2187">
<rect width="32" height="32" fill="white"/>
</clipPath>
</defs>
</svg>
