<svg width="32" height="32" viewBox="0 0 32 32" fill="none" xmlns="http://www.w3.org/2000/svg">
<g clip-path="url(#clip0_1_2185)">
<path fill-rule="evenodd" clip-rule="evenodd" d="M2.94474 16.0675C1.33084 16.388 0.114281 17.812 0.114281 19.52L0.114281 28.48C0.114281 30.424 1.69024 32 3.63429 32H12.5943C14.3424 32 15.7929 30.7256 16.0675 29.0552C16.388 30.6691 17.812 31.8858 19.52 31.8858H28.48C30.424 31.8858 32 30.3098 32 28.3658V19.4058C32 17.6576 30.7256 16.207 29.0554 15.9325C30.6691 15.6119 31.8858 14.188 31.8858 12.48V3.52C31.8858 1.57596 30.3098 4.7663e-07 28.3658 3.91654e-07L19.4058 0C17.6576 -7.64136e-08 16.207 1.27434 15.9325 2.94474C15.612 1.33084 14.188 0.114285 12.48 0.114285H3.52C1.57596 0.114285 0 1.69024 0 3.63429V12.5943C0 14.3424 1.27434 15.7929 2.94474 16.0675Z" fill="currentColor"/>
</g>
<defs>
<clipPath id="clip0_1_2185">
<rect width="32" height="32" fill="white"/>
</clipPath>
</defs>
</svg>
