<svg width="32" height="32" viewBox="0 0 32 32" fill="none" xmlns="http://www.w3.org/2000/svg">
<g clip-path="url(#clip0_1_2235)">
<path fill-rule="evenodd" clip-rule="evenodd" d="M8.11429 0H0.114286V8C0.114286 12.0739 3.15946 15.4366 7.09776 15.936C3.10424 16.3843 6.7524e-07 19.7725 3.49691e-07 23.8858L0 31.8858H8C12.0739 31.8858 15.4366 28.8405 15.936 24.9022C16.3843 28.8958 19.7725 32 23.8858 32H31.8858V24C31.8858 19.9261 28.8405 16.5634 24.9022 16.064C28.8958 15.6157 32 12.2275 32 8.11429V0.114286L24 0.114285C19.9261 0.114285 16.5634 3.15946 16.064 7.09776C15.6157 3.10424 12.2275 0 8.11429 0Z" fill="currentColor"/>
</g>
<defs>
<clipPath id="clip0_1_2235">
<rect width="32" height="32" fill="white"/>
</clipPath>
</defs>
</svg>
