<svg width="32" height="32" viewBox="0 0 32 32" fill="none" xmlns="http://www.w3.org/2000/svg">
<g clip-path="url(#clip0_1_2179)">
<path fill-rule="evenodd" clip-rule="evenodd" d="M9.38528 23.6458C9.17515 23.1915 8.80909 22.8254 8.35477 22.6152C4.81869 20.9797 2.02138 18.6211 0.528224 17.2067C-0.176077 16.5395 -0.176073 15.461 0.528226 14.7938C2.02138 13.3794 4.81869 11.0208 8.35475 9.3853C8.80909 9.17515 9.17515 8.80909 9.38528 8.35477C11.0208 4.8187 13.3794 2.02138 14.7938 0.528224C15.461 -0.176076 16.5395 -0.176074 17.2067 0.528225C18.6211 2.02138 20.9797 4.8187 22.6152 8.35477C22.8254 8.80909 23.1915 9.17515 23.6458 9.38528C27.1819 11.0208 29.9792 13.3794 31.4723 14.7938C32.1766 15.461 32.1766 16.5395 31.4723 17.2067C29.9792 18.6211 27.1819 20.9797 23.6458 22.6152C23.1915 22.8254 22.8254 23.1915 22.6152 23.6458C20.9797 27.1819 18.6211 29.9792 17.2067 31.4723C16.5395 32.1766 15.461 32.1766 14.7938 31.4723C13.3794 29.9792 11.0208 27.1819 9.38528 23.6458ZM16.0003 21.8818C19.2485 21.8818 21.8818 19.2485 21.8818 16.0003C21.8818 12.752 19.2485 10.1188 16.0003 10.1188C12.752 10.1188 10.1188 12.752 10.1188 16.0003C10.1188 19.2485 12.752 21.8818 16.0003 21.8818Z" fill="currentColor"/>
</g>
<defs>
<clipPath id="clip0_1_2179">
<rect width="32" height="32" fill="white"/>
</clipPath>
</defs>
</svg>
