<svg width="32" height="32" viewBox="0 0 32 32" fill="none" xmlns="http://www.w3.org/2000/svg">
<g clip-path="url(#clip0_1_2177)">
<path fill-rule="evenodd" clip-rule="evenodd" d="M19.9838 0.786741L16.928 13.7597L23.9403 2.4256C24.1576 2.07458 24.6453 2.0179 24.9371 2.30978L29.6902 7.06283C29.9821 7.3547 29.9254 7.84245 29.5744 8.05963L18.2403 15.0721L31.2133 12.0162C31.615 11.9215 32 12.2264 32 12.6391V19.361C32 19.7738 31.615 20.0786 31.2133 19.9838L18.2403 16.928L29.5744 23.9405C29.9254 24.1576 29.9821 24.6453 29.6902 24.9373L24.9371 29.6902C24.6453 29.9821 24.1576 29.9254 23.9403 29.5744L16.928 18.2403L19.9838 31.2133C20.0786 31.615 19.7736 32 19.361 32H12.6391C12.2263 32 11.9215 31.615 12.0161 31.2133L15.072 18.2403L8.05962 29.5744C7.84245 29.9254 7.35469 29.9821 7.06282 29.6902L2.30978 24.9371C2.0179 24.6453 2.07458 24.1576 2.4256 23.9403L13.7596 16.928L0.786742 19.9838C0.38497 20.0786 0 19.7738 0 19.361V12.6391C3.11862e-07 12.2263 0.384968 11.9215 0.786742 12.0162L13.7597 15.072L2.4256 8.05965C2.07458 7.84246 2.0179 7.3547 2.30978 7.06283L7.06282 2.30979C7.35469 2.01792 7.84245 2.07459 8.05962 2.42562L15.072 13.7597L12.0161 0.786742C11.9215 0.38497 12.2263 6.23725e-07 12.6391 5.8764e-07L19.361 0C19.7738 0 20.0786 0.384968 19.9838 0.786741ZM16 17.8286C17.0099 17.8286 17.8286 17.0099 17.8286 16C17.8286 14.9901 17.0099 14.1714 16 14.1714C14.9901 14.1714 14.1714 14.9901 14.1714 16C14.1714 17.0099 14.9901 17.8286 16 17.8286Z" fill="currentColor"/>
</g>
<defs>
<clipPath id="clip0_1_2177">
<rect width="32" height="32" fill="white"/>
</clipPath>
</defs>
</svg>
