<svg width="32" height="32" viewBox="0 0 32 32" fill="none" xmlns="http://www.w3.org/2000/svg">
<g clip-path="url(#clip0_1_2173)">
<path fill-rule="evenodd" clip-rule="evenodd" d="M17.1157 14.016C16.6264 14.8862 15.3736 14.8862 14.8843 14.016L8.07495 1.90741C7.59511 1.05416 8.21172 1.27616e-06 9.19063 9.07706e-07L22.8093 0C23.7883 -8.55795e-08 24.4048 1.05416 23.9249 1.90741L17.1157 14.016ZM14.016 17.1157C14.8861 16.6264 14.8861 15.3736 14.016 14.8843L1.90738 8.07496C1.05413 7.59514 -2.98795e-05 8.21173 -2.99223e-05 9.19064L-3.05176e-05 22.8093C-3.05604e-05 23.7883 1.05413 24.4048 1.90738 23.925L14.016 17.1157ZM17.1157 17.984C16.6264 17.1138 15.3736 17.1139 14.8843 17.984L8.07495 30.0926C7.59512 30.9459 8.21172 32 9.19063 32H22.8093C23.7883 32 24.4048 30.9458 23.9249 30.0926L17.1157 17.984ZM17.984 14.8843C17.1137 15.3736 17.1137 16.6264 17.984 17.1157L30.0926 23.925C30.9459 24.4048 32 23.7883 32 22.8093V9.19067C32 8.21176 30.9457 7.59515 30.0926 8.07499L17.984 14.8843Z" fill="currentColor"/>
</g>
<defs>
<clipPath id="clip0_1_2173">
<rect width="32" height="32" fill="white"/>
</clipPath>
</defs>
</svg>
