<svg width="32" height="32" viewBox="0 0 32 32" fill="none" xmlns="http://www.w3.org/2000/svg">
<g clip-path="url(#clip0_1_2169)">
<path fill-rule="evenodd" clip-rule="evenodd" d="M0 25.3448C7.38514 23.0107 8.98979 24.6152 6.6556 32C10.9685 24.6152 21.0315 24.6152 25.3445 32C23.0118 24.6152 24.6166 23.0107 32 25.3448C24.6166 21.032 24.6166 10.9696 32 6.65694C24.6166 8.98931 23.0118 7.38475 25.3445 0C21.0315 7.38475 10.9685 7.38475 6.6556 0C8.98979 7.38475 7.38514 8.98931 0 6.65694C7.38514 10.9696 7.38514 21.032 0 25.3448ZM16 21.92C19.2696 21.92 21.92 19.2696 21.92 16C21.92 12.7305 19.2696 10.08 16 10.08C12.7305 10.08 10.08 12.7305 10.08 16C10.08 19.2696 12.7305 21.92 16 21.92Z" fill="currentColor"/>
</g>
<defs>
<clipPath id="clip0_1_2169">
<rect width="32" height="32" fill="white"/>
</clipPath>
</defs>
</svg>
