<svg width="32" height="32" viewBox="0 0 32 32" fill="none" xmlns="http://www.w3.org/2000/svg">
<g clip-path="url(#clip0_1_2163)">
<path fill-rule="evenodd" clip-rule="evenodd" d="M16 16C16 16 18 10.6442 18 6.85714C18 3.07005 17.1046 0 16 0C14.8954 0 14 3.07005 14 6.85714C14 10.6442 16 16 16 16ZM16 16C16 16 18.373 21.2013 21.0507 23.8792C23.7286 26.5571 26.5326 28.0947 27.3138 27.3138C28.0947 26.5326 26.5571 23.7286 23.8792 21.0507C21.2013 18.373 16 16 16 16ZM16 16C16 16 21.3558 14 25.1429 14C28.9299 14 32 14.8954 32 16C32 17.1046 28.9299 18 25.1429 18C21.3558 18 16 16 16 16ZM16 16C16 16 10.7987 18.373 8.1208 21.0507C5.44293 23.7286 3.90523 26.5326 4.68629 27.3138C5.46734 28.0947 8.27136 26.5571 10.9492 23.8792C13.6271 21.2013 16 16 16 16ZM16 16C16.0045 16.0118 18 21.36 18 25.1429C18 28.9299 17.1046 32 16 32C14.8954 32 14 28.9299 14 25.1429C14 21.3558 16 16 16 16ZM16 16C16 16 10.6442 14 6.85714 14C3.07005 14 0 14.8954 0 16C0 17.1046 3.07005 18 6.85714 18C10.6442 18 16 16 16 16ZM16 16C16 16 21.2013 13.6271 23.8792 10.9492C26.5571 8.27134 28.0947 5.46733 27.3138 4.68629C26.5326 3.90523 23.7286 5.44293 21.0507 8.1208C18.373 10.7987 16 16 16 16ZM10.9492 8.1208C13.6271 10.7987 16 16 16 16C16 16 10.7987 13.6271 8.12082 10.9492C5.44293 8.27136 3.90525 5.46734 4.68629 4.68629C5.46734 3.90525 8.27136 5.44293 10.9492 8.1208Z" fill="currentColor"/>
</g>
<defs>
<clipPath id="clip0_1_2163">
<rect width="32" height="32" fill="white"/>
</clipPath>
</defs>
</svg>
