<svg width="32" height="32" viewBox="0 0 32 32" fill="none" xmlns="http://www.w3.org/2000/svg">
<g clip-path="url(#clip0_1_2161)">
<path fill-rule="evenodd" clip-rule="evenodd" d="M18.608 12.0758L23.8965 6.78739C24.26 6.42397 24.8491 6.42397 25.2126 6.78739C25.576 7.15083 25.576 7.74006 25.2126 8.10349L19.9242 13.3919C21.1178 13.1237 22.5114 12.9697 24 12.9697C28.4182 12.9697 32 14.3264 32 16C32 17.6736 28.4182 19.0302 24 19.0302C22.5114 19.0302 21.1178 18.8763 19.9242 18.608L25.2126 23.8965C25.576 24.26 25.576 24.8491 25.2126 25.2126C24.8491 25.576 24.26 25.576 23.8965 25.2126L18.608 19.9242C18.8763 21.1178 19.0302 22.5115 19.0302 24C19.0302 28.4182 17.6736 32 16 32C14.3264 32 12.9697 28.4182 12.9697 24C12.9697 22.5114 13.1237 21.1178 13.3919 19.9242L8.10349 25.2126C7.74006 25.576 7.15083 25.576 6.78741 25.2126C6.42398 24.8491 6.42398 24.26 6.78741 23.8965L12.0758 18.608C10.8822 18.8763 9.48856 19.0302 8 19.0302C3.58173 19.0302 0 17.6736 0 16C0 14.3264 3.58173 12.9697 8 12.9697C9.48856 12.9697 10.8822 13.1237 12.0758 13.3919L6.78741 8.1035C6.42398 7.74008 6.42398 7.15085 6.78741 6.78741C7.15083 6.42398 7.74006 6.42398 8.10349 6.78741L13.3919 12.0759C13.1237 10.8822 12.9697 9.48858 12.9697 8C12.9697 3.58173 14.3264 0 16 0C17.6736 0 19.0302 3.58173 19.0302 8C19.0302 9.48856 18.8763 10.8822 18.608 12.0758Z" fill="currentColor"/>
</g>
<defs>
<clipPath id="clip0_1_2161">
<rect width="32" height="32" fill="white"/>
</clipPath>
</defs>
</svg>
