<svg width="32" height="32" viewBox="0 0 32 32" fill="none" xmlns="http://www.w3.org/2000/svg">
<g clip-path="url(#clip0_1_2159)">
<path fill-rule="evenodd" clip-rule="evenodd" d="M18.0077 13.9923C19.4734 13.3651 21.6149 12.9697 24 12.9697C28.4182 12.9697 32 14.3264 32 16C32 17.6736 28.4182 19.0302 24 19.0302C21.6149 19.0302 19.4734 18.6349 18.0077 18.0077C18.6349 19.4734 19.0302 21.6149 19.0302 24C19.0302 28.4182 17.6736 32 16 32C14.3264 32 12.9697 28.4182 12.9697 24C12.9697 21.6149 13.3651 19.4734 13.9923 18.0077C12.5266 18.6349 10.3852 19.0302 8 19.0302C3.58173 19.0302 0 17.6736 0 16C0 14.3264 3.58173 12.9697 8 12.9697C10.3852 12.9697 12.5266 13.3651 13.9923 13.9923C13.3651 12.5266 12.9697 10.3852 12.9697 8C12.9697 3.58173 14.3264 0 16 0C17.6736 0 19.0302 3.58173 19.0302 8C19.0302 10.3852 18.6349 12.5266 18.0077 13.9923Z" fill="currentColor"/>
</g>
<defs>
<clipPath id="clip0_1_2159">
<rect width="32" height="32" fill="white"/>
</clipPath>
</defs>
</svg>
