<svg width="32" height="32" viewBox="0 0 32 32" fill="none" xmlns="http://www.w3.org/2000/svg">
<g clip-path="url(#clip0_1_2157)">
<path fill-rule="evenodd" clip-rule="evenodd" d="M8 16C12.4183 16 16 12.4183 16 8C16 12.4183 19.5818 16 24 16C19.5818 16 16 19.5818 16 24C16 19.5818 12.4183 16 8 16ZM8 16C3.58173 16 0 19.5818 0 24C0 28.4182 3.58173 32 8 32C12.4183 32 16 28.4182 16 24C16 28.4182 19.5818 32 24 32C28.4182 32 32 28.4182 32 24C32 19.5818 28.4182 16 24 16C28.4182 16 32 12.4183 32 8C32 3.58173 28.4182 0 24 0C19.5818 0 16 3.58173 16 8C16 3.58173 12.4183 0 8 0C3.58173 0 0 3.58173 0 8C0 12.4183 3.58173 16 8 16Z" fill="currentColor"/>
</g>
<defs>
<clipPath id="clip0_1_2157">
<rect width="32" height="32" fill="white"/>
</clipPath>
</defs>
</svg>
