<svg width="32" height="32" viewBox="0 0 32 32" fill="none" xmlns="http://www.w3.org/2000/svg">
<g clip-path="url(#clip0_1_2153)">
<path fill-rule="evenodd" clip-rule="evenodd" d="M17.1429 0.64C17.1429 0.286538 16.8563 0 16.5029 0H15.4971C15.1437 0 14.8571 0.286538 14.8571 0.64V6.82798C14.8571 7.53142 13.8872 7.71995 13.6237 7.06773L11.3057 1.33033C11.1733 1.0026 10.8003 0.84427 10.4725 0.97668L9.54005 1.35343C9.21234 1.48584 9.054 1.85885 9.1864 2.18658L11.6577 8.30318C11.9188 8.94962 11.1047 9.48848 10.6117 8.99549L5.94696 4.33072C5.69702 4.08078 5.29179 4.08078 5.04186 4.33072L4.33072 5.04186C4.08078 5.29179 4.08078 5.69702 4.33072 5.94696L8.51966 10.1359C9.01973 10.636 8.45893 11.4581 7.81088 11.1749L2.38232 8.80314C2.05842 8.66162 1.68114 8.80947 1.53962 9.13336L1.13697 10.055C0.995453 10.3789 1.1433 10.7561 1.4672 10.8977L7.72254 13.6307C8.35802 13.9083 8.15978 14.8571 7.4663 14.8571H0.64C0.286538 14.8571 0 15.1437 0 15.4971V16.5029C0 16.8563 0.286538 17.1429 0.64 17.1429H7.46627C8.15976 17.1429 8.35798 18.0917 7.72251 18.3693L1.46721 21.1024C1.14331 21.2438 0.995461 21.6211 1.13697 21.945L1.53963 22.8666C1.68114 23.1906 2.05843 23.3384 2.38232 23.1968L7.81088 20.8251C8.45893 20.5419 9.01973 21.364 8.51966 21.8642L4.33072 26.053C4.08078 26.303 4.08078 26.7082 4.33072 26.9581L5.04187 27.6693C5.29179 27.9192 5.69702 27.9192 5.94696 27.6693L10.6117 23.0045C11.1047 22.5115 11.9189 23.0504 11.6577 23.6968L9.1864 29.8134C9.054 30.1411 9.21232 30.5141 9.54005 30.6466L10.4725 31.0234C10.8003 31.1557 11.1733 30.9974 11.3057 30.6696L13.6237 24.9323C13.8872 24.28 14.8571 24.4686 14.8571 25.172V31.36C14.8571 31.7134 15.1437 32 15.4971 32H16.5029C16.8563 32 17.1429 31.7134 17.1429 31.36V25.172C17.1429 24.4686 18.1128 24.28 18.3763 24.9323L20.6942 30.6696C20.8267 30.9974 21.1997 31.1557 21.5275 31.0234L22.46 30.6466C22.7877 30.5141 22.9461 30.1411 22.8136 29.8134L20.3424 23.6968C20.0811 23.0504 20.8952 22.5115 21.3883 23.0045L26.053 27.6693C26.303 27.9192 26.7082 27.9192 26.9581 27.6693L27.6693 26.9581C27.9192 26.7082 27.9192 26.303 27.6693 26.053L23.4803 21.8642C22.9803 21.364 23.5411 20.5419 24.1891 20.8251L29.6176 23.1968C29.9416 23.3384 30.3189 23.1906 30.4603 22.8666L30.863 21.945C31.0045 21.6211 30.8566 21.2438 30.5328 21.1024L24.2774 18.3693C23.6421 18.0917 23.8402 17.1429 24.5338 17.1429H31.36C31.7134 17.1429 32 16.8563 32 16.5029V15.4971C32 15.1437 31.7134 14.8571 31.36 14.8571H24.5338C23.8402 14.8571 23.6419 13.9083 24.2774 13.6307L30.5328 10.8977C30.8566 10.7561 31.0045 10.3789 30.863 10.055L30.4603 9.13336C30.3189 8.80947 29.9416 8.66162 29.6176 8.80314L24.1891 11.1749C23.5411 11.458 22.9803 10.636 23.4803 10.1359L27.6693 5.94694C27.9192 5.69701 27.9192 5.29179 27.6693 5.04186L26.9581 4.3307C26.7082 4.08077 26.303 4.08077 26.053 4.3307L21.3883 8.99547C20.8952 9.48846 20.0811 8.9496 20.3424 8.30317L22.8136 2.18658C22.9461 1.85885 22.7877 1.48584 22.46 1.35343L21.5275 0.97668C21.1997 0.84427 20.8267 1.0026 20.6942 1.33033L18.3763 7.06773C18.1128 7.71995 17.1429 7.53142 17.1429 6.82798V0.64Z" fill="currentColor"/>
</g>
<defs>
<clipPath id="clip0_1_2153">
<rect width="32" height="32" fill="white"/>
</clipPath>
</defs>
</svg>
