<svg width="32" height="32" viewBox="0 0 32 32" fill="none" xmlns="http://www.w3.org/2000/svg">
<g clip-path="url(#clip0_1_2151)">
<path fill-rule="evenodd" clip-rule="evenodd" d="M16.5029 0C16.8563 0 17.1429 0.286538 17.1429 0.64V6.82798C17.1429 7.53142 18.1128 7.71995 18.3763 7.06773L20.6942 1.33033C20.8267 1.0026 21.1997 0.84427 21.5275 0.97668L22.46 1.35343C22.7877 1.48584 22.9461 1.85885 22.8136 2.18658L20.3424 8.30317C20.0811 8.9496 20.8952 9.48846 21.3883 8.99547L26.053 4.3307C26.303 4.08077 26.7082 4.08077 26.9581 4.3307L27.6693 5.04186C27.9192 5.29179 27.9192 5.69701 27.6693 5.94694L23.4803 10.1359C22.9803 10.636 23.5411 11.458 24.1891 11.1749L29.6176 8.80314C29.9416 8.66162 30.3189 8.80947 30.4603 9.13336L30.863 10.055C31.0045 10.3789 30.8566 10.7561 30.5328 10.8977L24.2774 13.6307C23.6419 13.9083 23.8402 14.8571 24.5336 14.8571H31.36C31.7134 14.8571 32 15.1437 32 15.4971V16.5029C32 16.8563 31.7134 17.1429 31.36 17.1429H24.5338C23.8402 17.1429 23.6421 18.0917 24.2774 18.3693L30.5328 21.1024C30.8566 21.2438 31.0045 21.6211 30.863 21.945L30.4603 22.8666C30.3189 23.1906 29.9416 23.3384 29.6176 23.1968L24.1891 20.8251C23.5411 20.5419 22.9803 21.364 23.4803 21.8642L27.6693 26.053C27.9192 26.303 27.9192 26.7082 27.6693 26.9581L26.9581 27.6693C26.7082 27.9192 26.303 27.9192 26.053 27.6693L21.3883 23.0045C20.8952 22.5115 20.0811 23.0504 20.3424 23.6968L22.8136 29.8134C22.9461 30.1411 22.7877 30.5141 22.46 30.6466L21.5275 31.0234C21.1997 31.1557 20.8267 30.9974 20.6942 30.6696L18.3763 24.9323C18.1128 24.28 17.1429 24.4686 17.1429 25.172V31.36C17.1429 31.7134 16.8563 32 16.5029 32H15.4971C15.1437 32 14.8571 31.7134 14.8571 31.36V25.172C14.8571 24.4686 13.8872 24.28 13.6237 24.9323L11.3057 30.6696C11.1733 30.9974 10.8003 31.1557 10.4725 31.0234L9.54005 30.6466C9.21232 30.5141 9.054 30.1411 9.1864 29.8134L11.6577 23.6968C11.9189 23.0504 11.1047 22.5115 10.6117 23.0045L5.94696 27.6693C5.69702 27.9192 5.29179 27.9192 5.04187 27.6693L4.33072 26.9581C4.08078 26.7082 4.08078 26.303 4.33072 26.053L8.51966 21.864C9.01973 21.364 8.45893 20.5419 7.81088 20.8251L2.38232 23.1968C2.05843 23.3384 1.68114 23.1906 1.53962 22.8666L1.13697 21.945C0.995458 21.6211 1.14331 21.2438 1.46721 21.1024L7.72251 18.3693C8.35798 18.0917 8.15976 17.1429 7.46627 17.1429H0.64C0.286538 17.1429 0 16.8563 0 16.5029V15.4971C0 15.1437 0.286538 14.8571 0.64 14.8571H7.4663C8.15978 14.8571 8.35802 13.9083 7.72254 13.6307L1.4672 10.8977C1.1433 10.7561 0.995453 10.3789 1.13697 10.055L1.53962 9.13336C1.68114 8.80947 2.05842 8.66162 2.38232 8.80314L7.81088 11.1749C8.45893 11.4581 9.01973 10.636 8.51966 10.1359L4.33072 5.94696C4.08078 5.69702 4.08078 5.29179 4.33072 5.04186L5.04186 4.33072C5.29179 4.08078 5.69702 4.08078 5.94696 4.33072L10.6117 8.99549C11.1047 9.48848 11.9188 8.94962 11.6577 8.30318L9.1864 2.18658C9.054 1.85885 9.21234 1.48584 9.54005 1.35343L10.4725 0.97668C10.8003 0.84427 11.1733 1.0026 11.3057 1.33033L13.6237 7.06773C13.8872 7.71995 14.8571 7.53142 14.8571 6.82798V0.64C14.8571 0.286538 15.1437 0 15.4971 0H16.5029ZM16 22.8571C19.787 22.8571 22.8571 19.787 22.8571 16C22.8571 12.2129 19.787 9.14286 16 9.14286C12.2129 9.14286 9.14286 12.2129 9.14286 16C9.14286 19.787 12.2129 22.8571 16 22.8571Z" fill="currentColor"/>
</g>
<defs>
<clipPath id="clip0_1_2151">
<rect width="32" height="32" fill="white"/>
</clipPath>
</defs>
</svg>
