<svg width="32" height="32" viewBox="0 0 32 32" fill="none" xmlns="http://www.w3.org/2000/svg">
<g clip-path="url(#clip0_1_2149)">
<path fill-rule="evenodd" clip-rule="evenodd" d="M16.2566 0.137523C16.1323 -0.0696855 15.832 -0.0696853 15.7077 0.137523L12.6898 5.16929C12.6076 5.30627 12.4371 5.36167 12.2901 5.29916L6.89095 3.00228C6.66861 2.90769 6.42567 3.0842 6.44691 3.32487L6.96295 9.16956C6.97699 9.32866 6.87159 9.47375 6.71592 9.50956L0.997838 10.8249C0.762367 10.8791 0.669572 11.1646 0.828235 11.3469L4.68114 15.772C4.78602 15.8925 4.78602 16.0718 4.68114 16.1923L0.828235 20.6174C0.669572 20.7997 0.762367 21.0853 0.997839 21.1393L6.71592 22.4547C6.87159 22.4905 6.97699 22.6357 6.96295 22.7947L6.44691 28.6393C6.42567 28.8801 6.66861 29.0566 6.89095 28.9621L12.2901 26.6651C12.4371 26.6025 12.6076 26.6581 12.6898 26.795L15.7077 31.8267C15.832 32.0341 16.1323 32.0339 16.2566 31.8267L19.2746 26.795C19.3566 26.6581 19.5272 26.6025 19.6742 26.6651L25.0734 28.9621C25.2957 29.0566 25.5387 28.8801 25.5174 28.6393L25.0014 22.7947C24.9874 22.6357 25.0928 22.4905 25.2485 22.4547L30.9666 21.1393C31.2019 21.0853 31.2947 20.7997 31.1362 20.6174L27.2832 16.1923C27.1784 16.0718 27.1784 15.8925 27.2832 15.772L31.1362 11.3469C31.2947 11.1646 31.2019 10.8791 30.9666 10.8249L25.2485 9.50956C25.0928 9.47375 24.9874 9.32866 25.0014 9.16956L25.5174 3.32487C25.5387 3.0842 25.2957 2.90769 25.0734 3.00228L19.6742 5.29916C19.5272 5.36167 19.3566 5.30627 19.2746 5.16929L16.2566 0.137523ZM16 24C20.4182 24 24 20.4182 24 16C24 11.5817 20.4182 7.99998 16 7.99998C11.5817 7.99998 8 11.5817 8 16C8 20.4182 11.5817 24 16 24Z" fill="currentColor"/>
</g>
<defs>
<clipPath id="clip0_1_2149">
<rect width="32" height="32" fill="white"/>
</clipPath>
</defs>
</svg>
