<svg width="32" height="32" viewBox="0 0 32 32" fill="none" xmlns="http://www.w3.org/2000/svg">
<g clip-path="url(#clip0_1_2147)">
<path fill-rule="evenodd" clip-rule="evenodd" d="M17.6 0C18.4837 0 19.2 0.716344 19.2 1.6V4.41178C19.2 5.83722 20.9234 6.55109 21.9314 5.54314L23.9195 3.55491C24.5445 2.93008 25.5574 2.93008 26.1824 3.55491L28.4451 5.81766C29.0699 6.4425 29.0699 7.45557 28.4451 8.0804L26.4568 10.0686C25.449 11.0766 26.1627 12.8 27.5882 12.8H30.4C31.2837 12.8 32 13.5163 32 14.4V17.6C32 18.4837 31.2837 19.2 30.4 19.2H27.5882C26.1627 19.2 25.449 20.9234 26.4568 21.9314L28.4451 23.9195C29.0699 24.5445 29.0699 25.5574 28.4451 26.1824L26.1824 28.4451C25.5574 29.0699 24.5445 29.0699 23.9195 28.4451L21.9314 26.4568C20.9234 25.449 19.2 26.1627 19.2 27.5882V30.4C19.2 31.2837 18.4837 32 17.6 32H14.4C13.5163 32 12.8 31.2837 12.8 30.4V27.5882C12.8 26.1627 11.0766 25.449 10.0686 26.4568L8.0804 28.4451C7.45557 29.0699 6.4425 29.0699 5.81766 28.4451L3.55493 26.1824C2.93008 25.5574 2.93008 24.5445 3.55493 23.9195L5.54315 21.9314C6.55109 20.9234 5.83723 19.2 4.41178 19.2H1.6C0.716346 19.2 0 18.4837 0 17.6V14.4C0 13.5163 0.716344 12.8 1.6 12.8H4.41178C5.83722 12.8 6.55109 11.0766 5.54315 10.0686L3.55493 8.0804C2.93008 7.45555 2.93008 6.4425 3.55493 5.81766L5.81766 3.55491C6.4425 2.93008 7.45557 2.93008 8.0804 3.55491L10.0686 5.54314C11.0766 6.55109 12.8 5.83722 12.8 4.41178V1.6C12.8 0.716344 13.5163 0 14.4 0H17.6ZM16 24C20.4182 24 24 20.4182 24 16C24 11.5817 20.4182 8 16 8C11.5817 8 8 11.5817 8 16C8 20.4182 11.5817 24 16 24Z" fill="currentColor"/>
</g>
<defs>
<clipPath id="clip0_1_2147">
<rect width="32" height="32" fill="white"/>
</clipPath>
</defs>
</svg>
