<svg width="32" height="32" viewBox="0 0 32 32" fill="none" xmlns="http://www.w3.org/2000/svg">
<g clip-path="url(#clip0_1_2145)">
<path fill-rule="evenodd" clip-rule="evenodd" d="M19.2 2.28571C19.2 1.02335 18.1766 0 16.9142 0H15.0857C13.8233 0 12.8 1.02335 12.8 2.28571V2.7563C12.8 4.79266 10.338 5.81246 8.89805 4.37254L8.56528 4.03979C7.67266 3.14717 6.22542 3.14717 5.33278 4.03979L4.03979 5.33278C3.14717 6.22541 3.14717 7.67264 4.03979 8.56528L4.37256 8.89805C5.81248 10.338 4.79267 12.8 2.75632 12.8H2.28571C1.02335 12.8 0 13.8233 0 15.0857V16.9142C0 18.1766 1.02335 19.2 2.28571 19.2H2.7563C4.79267 19.2 5.81248 21.6621 4.37256 23.1019L4.03979 23.4347C3.14717 24.3274 3.14717 25.7746 4.03979 26.6672L5.33278 27.9602C6.22542 28.8528 7.67266 28.8528 8.56528 27.9602L8.89805 27.6274C10.338 26.1875 12.8 27.2074 12.8 29.2437V29.7142C12.8 30.9766 13.8233 32 15.0857 32H16.9142C18.1766 32 19.2 30.9766 19.2 29.7142V29.2437C19.2 27.2074 21.6621 26.1875 23.1019 27.6274L23.4347 27.9602C24.3274 28.8528 25.7746 28.8528 26.6672 27.9602L27.9602 26.6672C28.8528 25.7746 28.8528 24.3274 27.9602 23.4347L27.6275 23.1019C26.1875 21.6621 27.2074 19.2 29.2437 19.2H29.7142C30.9766 19.2 32 18.1766 32 16.9142V15.0857C32 13.8233 30.9766 12.8 29.7142 12.8H29.2437C27.2074 12.8 26.1875 10.338 27.6274 8.89805L27.9602 8.56526C28.8528 7.67264 28.8528 6.22541 27.9602 5.33278L26.6672 4.03979C25.7746 3.14715 24.3274 3.14715 23.4347 4.03979L23.1019 4.37254C21.6621 5.81246 19.2 4.79266 19.2 2.7563V2.28571Z" fill="currentColor"/>
</g>
<defs>
<clipPath id="clip0_1_2145">
<rect width="32" height="32" fill="white"/>
</clipPath>
</defs>
</svg>
