<svg width="32" height="32" viewBox="0 0 32 32" fill="none" xmlns="http://www.w3.org/2000/svg">
<g clip-path="url(#clip0_1_2141)">
<path d="M16 32C14.6667 32 13.5556 31.5694 12.6667 30.7083C11.7778 29.8472 11.3333 28.8056 11.3333 27.5834C11.3333 26.889 11.4722 26.2638 11.75 25.7083C12.0278 25.1528 12.5139 24.5416 13.2083 23.875C13.9306 23.2083 14.5 22.5834 14.9167 22C15.3611 21.389 15.5833 20.8611 15.5833 20.4166V18.9166C14.9722 18.7778 14.4306 18.5 13.9583 18.0834C13.5139 17.6389 13.2222 17.111 13.0833 16.5H11.5833C11.1111 16.5 10.5556 16.7222 9.91667 17.1667C9.27778 17.611 8.66667 18.1528 8.08333 18.7917C7.5 19.4306 6.91667 19.9027 6.33333 20.2083C5.77778 20.5139 5.1389 20.6667 4.41667 20.6667C3.16667 20.6667 2.1111 20.2222 1.25 19.3333C0.416667 18.4445 0 17.3333 0 16C0 14.6667 0.416667 13.5556 1.25 12.6667C2.1111 11.7778 3.16667 11.3333 4.41667 11.3333C5.58333 11.3333 6.58333 11.75 7.41667 12.5833C8.25 13.4167 9 14.125 9.66667 14.7083C10.3333 15.2917 10.9722 15.5833 11.5833 15.5833H13.0833C13.2222 14.9444 13.5139 14.4167 13.9583 14C14.4306 13.5556 14.9722 13.2778 15.5833 13.1667V11.6667C15.5833 10.9444 15.0278 10.0278 13.9167 8.91667L13.0417 8.04166C11.9028 6.90278 11.3333 5.69445 11.3333 4.41667C11.3333 3.16667 11.7778 2.12499 12.6667 1.29167C13.5833 0.430555 14.6944 0 16 0C17.3333 0 18.4445 0.430555 19.3333 1.29167C20.2222 2.15278 20.6667 3.19445 20.6667 4.41667C20.6667 5.83333 19.9722 7.16667 18.5834 8.41667C17.1944 9.69445 16.5 10.7778 16.5 11.6667V13.1667C17.1389 13.2778 17.6667 13.5556 18.0834 14C18.5278 14.4167 18.8056 14.9444 18.9166 15.5833H20.4166C21.3611 15.5833 22.4445 14.875 23.6667 13.4583C24.9166 12.0417 26.2222 11.3333 27.5834 11.3333C28.8333 11.3333 29.875 11.7917 30.7083 12.7083C31.5694 13.5972 32 14.6944 32 16C32 17.3333 31.5694 18.4445 30.7083 19.3333C29.8472 20.2222 28.8056 20.6667 27.5834 20.6667C26.4166 20.6667 25.4306 20.2638 24.625 19.4584C23.8195 18.6528 23.0694 17.9584 22.375 17.375C21.6805 16.7917 21.0278 16.5 20.4166 16.5H18.9166C18.6944 17.8333 17.889 18.6389 16.5 18.9166V20.4166C16.5 21.2499 17.1944 22.3195 18.5834 23.625C19.9722 24.9306 20.6667 26.2499 20.6667 27.5834C20.6667 28.8333 20.2083 29.875 19.2917 30.7083C18.4027 31.5694 17.3056 32 16 32Z" fill="currentColor"/>
</g>
<defs>
<clipPath id="clip0_1_2141">
<rect width="32" height="32" fill="white"/>
</clipPath>
</defs>
</svg>
