<svg width="32" height="32" viewBox="0 0 32 32" fill="none" xmlns="http://www.w3.org/2000/svg">
<g clip-path="url(#clip0_1_2137)">
<path d="M16.0406 32C15.536 32 15.1094 31.6346 14.9872 31.145C14.5976 29.5845 13.8519 27.925 12.75 26.1667C11.4444 24.0555 9.58333 22.0973 7.16667 20.2917C5.06478 18.703 2.9629 17.6197 0.861021 17.0418C0.363208 16.905 0 16.4635 0 15.9472C0 15.4411 0.349237 15.0047 0.835957 14.8657C2.89672 14.2774 4.88195 13.3221 6.79166 12C8.98611 10.4722 10.8194 8.63888 12.2917 6.5C13.5941 4.59464 14.4881 2.71021 14.9738 0.846731C15.101 0.358552 15.5308 0 16.0354 0C16.5454 0 16.9782 0.366493 17.1024 0.861328C17.3827 1.97846 17.8208 3.12192 18.4166 4.29166C19.1667 5.73611 20.125 7.12499 21.2917 8.45834C22.4861 9.76389 23.8195 10.9444 25.2917 12C27.2155 13.3637 29.1712 14.3218 31.159 14.8742C31.6467 15.0097 32 15.4439 32 15.95C32 16.4637 31.636 16.9014 31.1406 17.0373C29.8806 17.3827 28.5837 17.9398 27.2501 18.7083C25.6389 19.6528 24.1389 20.7778 22.7499 22.0834C21.3611 23.3611 20.2222 24.7083 19.3333 26.125C18.2293 27.8869 17.4827 29.5592 17.0939 31.1422C16.9733 31.6333 16.5461 32 16.0406 32Z" fill="currentColor"/>
</g>
<defs>
<clipPath id="clip0_1_2137">
<rect width="32" height="32" fill="white"/>
</clipPath>
</defs>
</svg>
