<svg width="32" height="32" viewBox="0 0 32 32" fill="none" xmlns="http://www.w3.org/2000/svg">
<g clip-path="url(#clip0_1_2130)">
<path d="M11.4493 2.61355C13.4938 -0.871185 18.532 -0.871183 20.5765 2.61355L20.6507 2.74011C21.5941 4.34773 23.3134 5.34048 25.1773 5.35354L25.3242 5.35456C29.3643 5.38285 31.8834 9.74597 29.8877 13.259L29.8152 13.3866C28.8946 15.0072 28.8946 16.9928 29.8152 18.6134L29.8877 18.741C31.8834 22.2541 29.3643 26.6171 25.3242 26.6454L25.1773 26.6464C23.3134 26.6595 21.5941 27.6523 20.6507 29.2598L20.5765 29.3864C18.532 32.8712 13.4938 32.8712 11.4493 29.3864L11.375 29.2598C10.4318 27.6523 8.71228 26.6595 6.84844 26.6464L6.7017 26.6454C2.66154 26.6171 0.1425 22.2541 2.13807 18.741L2.21055 18.6134C3.13117 16.9928 3.13117 15.0072 2.21055 13.3866L2.13807 13.259C0.1425 9.74597 2.66154 5.38285 6.7017 5.35456L6.84844 5.35354C8.71229 5.34048 10.4318 4.34773 11.375 2.74011L11.4493 2.61355Z" fill="currentColor"/>
</g>
<defs>
<clipPath id="clip0_1_2130">
<rect width="32" height="32" fill="white"/>
</clipPath>
</defs>
</svg>
