<svg width="32" height="32" viewBox="0 0 32 32" fill="none" xmlns="http://www.w3.org/2000/svg">
<g clip-path="url(#clip0_1_2128)">
<path d="M15.6499 0.295421C15.7177 -0.0984755 16.2822 -0.0984728 16.3501 0.295424L17.0981 4.63688C17.1578 4.98301 17.6286 5.04261 17.7723 4.72221L19.5742 0.703522C19.7378 0.338907 20.2845 0.47956 20.2525 0.877992L19.8994 5.26941C19.8712 5.61954 20.3125 5.79459 20.5312 5.52005L23.2741 2.07662C23.5229 1.76421 24.0176 2.03669 23.8877 2.41461L22.4557 6.58008C22.3414 6.91218 22.7254 7.1917 23.0054 6.98027L26.5168 4.32848C26.8354 4.08789 27.2469 4.47506 27.0272 4.80874L24.6062 8.48651C24.4133 8.77973 24.7158 9.14614 25.0395 9.01112L29.0987 7.31758C29.467 7.16394 29.7696 7.64147 29.4739 7.90994L26.2162 10.8689C25.9565 11.1048 26.1586 11.5351 26.5056 11.485L30.8576 10.8561C31.2525 10.7991 31.427 11.337 31.0741 11.5234L27.1842 13.5776C26.8741 13.7414 26.963 14.2085 27.3115 14.2464L31.683 14.7217C32.0797 14.7649 32.115 15.3293 31.727 15.4219L27.4494 16.4424C27.1083 16.5238 27.0786 16.9984 27.4067 17.1219L31.5229 18.6715C31.8963 18.8122 31.7906 19.3677 31.3917 19.3608L26.9952 19.2834C26.6446 19.2771 26.4981 19.7294 26.7853 19.9309L30.3875 22.4574C30.7142 22.6867 30.4739 23.1984 30.0893 23.0922L25.8502 21.9218C25.5122 21.8285 25.2579 22.2299 25.4861 22.4966L28.348 25.8414C28.6077 26.145 28.2478 26.5806 27.9016 26.3819L24.0862 24.192C23.7819 24.0174 23.436 24.343 23.5909 24.6581L25.5326 28.6109C25.7088 28.9696 25.2522 29.3019 24.9662 29.0234L21.8141 25.9515C21.5629 25.7066 21.1469 25.9357 21.2187 26.2795L22.1184 30.5918C22.2 30.9832 21.675 31.1914 21.4674 30.8502L19.1768 27.0894C18.9941 26.7896 18.5344 26.9078 18.5186 27.2587L18.3195 31.66C18.3016 32.0592 17.7414 32.1301 17.625 31.7478L16.3398 27.5346C16.2373 27.1987 15.7627 27.1987 15.6602 27.5346L14.3751 31.7478C14.2585 32.1301 13.6985 32.0592 13.6804 31.66L13.4814 27.2587C13.4656 26.9078 13.0059 26.7896 12.8232 27.0894L10.5327 30.8502C10.3249 31.1914 9.80003 30.9832 9.88166 30.5918L10.7814 26.2795C10.8531 25.9357 10.4372 25.7066 10.1859 25.9515L7.03384 29.0234C6.74786 29.3019 6.29117 28.9696 6.46736 28.6109L8.40918 24.6581C8.564 24.343 8.218 24.0174 7.91381 24.192L4.09835 26.3819C3.75218 26.5806 3.39235 26.145 3.65202 25.8414L6.51397 22.4966C6.74214 22.2299 6.48782 21.8285 6.14984 21.9218L1.91069 23.0922C1.52607 23.1984 1.28572 22.6867 1.61254 22.4574L5.21478 19.9309C5.50198 19.7294 5.35531 19.2771 5.0048 19.2834L0.60831 19.3608C0.209421 19.3677 0.103642 18.8122 0.477101 18.6715L4.59328 17.1219C4.92146 16.9984 4.89165 16.5238 4.55061 16.4424L0.27304 15.4219C-0.115062 15.3293 -0.0796143 14.7649 0.317009 14.7217L4.68851 14.2464C5.03704 14.2085 5.12597 13.7414 4.81584 13.5776L0.925958 11.5234C0.573032 11.337 0.747473 10.7991 1.14234 10.8561L5.49448 11.485C5.84146 11.5351 6.04355 11.1048 5.78381 10.8689L2.52603 7.90994C2.23046 7.64147 2.53293 7.16394 2.90123 7.31758L6.96054 9.01112C7.28419 9.14614 7.58672 8.77973 7.39371 8.48651L4.97274 4.80874C4.75307 4.47506 5.16458 4.08789 5.48317 4.32848L8.99459 6.98027C9.27456 7.1917 9.65853 6.91218 9.54437 6.58008L8.1123 2.41461C7.98238 2.03669 8.47706 1.76421 8.72592 2.07662L11.4688 5.52005C11.6875 5.79459 12.1288 5.61952 12.1007 5.26941L11.7475 0.877989C11.7155 0.479558 12.2622 0.338906 12.4257 0.703518L14.2278 4.72221C14.3714 5.04261 14.8423 4.98301 14.902 4.63688L15.6499 0.295421Z" fill="currentColor"/>
</g>
<defs>
<clipPath id="clip0_1_2128">
<rect width="32" height="32" fill="white"/>
</clipPath>
</defs>
</svg>
