<svg width="32" height="32" viewBox="0 0 32 32" fill="none" xmlns="http://www.w3.org/2000/svg">
<g clip-path="url(#clip0_1_2126)">
<path d="M14.9887 0.824754C15.5774 0.344629 16.4226 0.344629 17.0112 0.824754L18.2805 1.85999C18.68 2.18572 19.2118 2.29912 19.7093 2.16464L21.2862 1.73842C22.0186 1.54049 22.7891 1.88399 23.1315 2.56092L23.8766 4.03445C24.1086 4.49301 24.5466 4.81228 25.0541 4.89268L26.6747 5.14943C27.4214 5.26773 27.9835 5.89263 28.0222 6.64772L28.1075 8.31013C28.1338 8.82127 28.403 9.28903 28.8318 9.56852L30.2184 10.4723C30.8498 10.8839 31.1083 11.6805 30.8389 12.3845L30.2424 13.9434C30.0598 14.4203 30.116 14.9557 30.3933 15.3844L31.2989 16.7838C31.708 17.4163 31.6206 18.2485 31.089 18.7822L29.9162 19.9597C29.5555 20.3217 29.3894 20.8342 29.4694 21.339L29.7304 22.9869C29.8483 23.7323 29.4293 24.4589 28.725 24.7302L27.1874 25.3222C26.7088 25.5065 26.3475 25.909 26.2158 26.4046L25.7901 28.0075C25.5957 28.7397 24.9146 29.235 24.1582 29.1945L22.5248 29.1072C22.0107 29.0797 21.5149 29.3011 21.1923 29.7022L20.1622 30.9835C19.6864 31.5753 18.8602 31.7512 18.1845 31.4043L16.7307 30.6579C16.272 30.4226 15.728 30.4226 15.2693 30.6579L13.8154 31.4043C13.1399 31.7512 12.3136 31.5753 11.8378 30.9835L10.8077 29.7022C10.4851 29.3011 9.98927 29.0797 9.47524 29.1072L7.84177 29.1945C7.08544 29.235 6.40433 28.7397 6.2099 28.0075L5.78411 26.4046C5.65246 25.909 5.29123 25.5065 4.81267 25.3222L3.27505 24.7302C2.57065 24.4589 2.15163 23.7323 2.26968 22.9869L2.53059 21.339C2.61051 20.8342 2.44449 20.3217 2.08384 19.9597L0.910984 18.7822C0.379377 18.2485 0.292011 17.4163 0.701193 16.7838L1.60664 15.3844C1.88403 14.9557 1.94011 14.4203 1.75761 13.9434L1.16105 12.3845C0.891637 11.6805 1.15017 10.8839 1.78166 10.4723L3.16822 9.56852C3.59699 9.28903 3.86617 8.82127 3.8924 8.31013L3.97771 6.64772C4.01646 5.89263 4.57848 5.26773 5.32524 5.14943L6.94588 4.89268C7.4534 4.81228 7.89142 4.49301 8.12332 4.03445L8.86852 2.56092C9.21086 1.88399 9.9815 1.54049 10.7138 1.73842L12.2907 2.16464C12.7882 2.29912 13.3201 2.18572 13.7194 1.85999L14.9887 0.824754Z" fill="currentColor"/>
</g>
<defs>
<clipPath id="clip0_1_2126">
<rect width="32" height="32" fill="white"/>
</clipPath>
</defs>
</svg>
