<svg width="32" height="32" viewBox="0 0 32 32" fill="none" xmlns="http://www.w3.org/2000/svg">
<g clip-path="url(#clip0_1_2124)">
<path d="M14.3891 0.980581C15.0651 -0.32686 16.9349 -0.32686 17.6109 0.980581L21.9157 9.3063C22.0882 9.63994 22.36 9.91178 22.6938 10.0843L31.0194 14.3891C32.3269 15.0651 32.3269 16.9349 31.0194 17.6109L22.6938 21.9157C22.36 22.0882 22.0882 22.36 21.9157 22.6938L17.6109 31.0194C16.9349 32.3269 15.0651 32.3269 14.3891 31.0194L10.0843 22.6938C9.91178 22.36 9.63994 22.0882 9.3063 21.9157L0.980581 17.6109C-0.32686 16.9349 -0.32686 15.0651 0.980581 14.3891L9.3063 10.0843C9.63994 9.91178 9.91178 9.63994 10.0843 9.3063L14.3891 0.980581Z" fill="currentColor"/>
</g>
<defs>
<clipPath id="clip0_1_2124">
<rect width="32" height="32" fill="white"/>
</clipPath>
</defs>
</svg>
