<svg width="32" height="32" viewBox="0 0 32 32" fill="none" xmlns="http://www.w3.org/2000/svg">
<g clip-path="url(#clip0_1_2229)">
<path fill-rule="evenodd" clip-rule="evenodd" d="M15.9991 29.3938C17.085 30.697 18.1707 32 20.3424 32C25.3414 32 26.7854 25.351 26.7874 20.345C26.7874 18.1734 28.0904 17.0877 29.3936 16.0019C30.6968 14.9161 32 13.8303 32 11.6588C32 6.65822 25.3414 5.21238 20.3442 5.21238C18.1726 5.21238 17.0867 3.9093 16.001 2.60619C14.9151 1.3031 13.8293 0 11.6576 0C6.65677 0 5.21085 6.65822 5.21085 11.6551C5.21085 13.8266 3.90814 14.9124 2.60542 15.9982C1.30271 17.084 0 18.1698 0 20.3413C0 25.3418 6.65677 26.7877 11.6558 26.7877C13.8274 26.7877 14.9133 28.0907 15.9991 29.3938ZM16 21.92C19.2696 21.92 21.92 19.2696 21.92 16C21.92 12.7305 19.2696 10.08 16 10.08C12.7305 10.08 10.08 12.7305 10.08 16C10.08 19.2696 12.7305 21.92 16 21.92Z" fill="currentColor"/>
</g>
<defs>
<clipPath id="clip0_1_2229">
<rect width="32" height="32" fill="white"/>
</clipPath>
</defs>
</svg>
