<svg width="32" height="32" viewBox="0 0 32 32" fill="none" xmlns="http://www.w3.org/2000/svg">
<g clip-path="url(#clip0_1_2225)">
<path d="M15.9424 10.9571C15.9424 -10.4684 22.5602 4.53764 17.2034 13.8164C22.5602 4.53764 38.8654 2.76537 20.3096 13.479C38.8654 2.76537 29.1797 15.9991 18.4643 15.9991C29.1762 15.9991 38.8654 29.233 20.3096 18.521C38.8654 29.233 22.5602 27.4606 17.2034 18.1819C22.5602 27.4606 15.9424 42.4683 15.9424 21.0411C15.9424 42.4683 9.33332 27.4606 14.6814 18.1819C9.32636 27.4606 -6.97887 29.233 11.5769 18.521C-6.97887 29.233 2.70687 15.9991 13.4222 15.9991C2.7086 15.9991 -6.97887 2.76537 11.5769 13.479C-6.97887 2.76537 9.32636 4.53764 14.6814 13.8164C9.32636 4.53764 15.9424 -10.4684 15.9424 10.9571Z" fill="currentColor"/>
</g>
<defs>
<clipPath id="clip0_1_2225">
<rect width="32" height="32" fill="white"/>
</clipPath>
</defs>
</svg>
