<svg width="32" height="32" viewBox="0 0 32 32" fill="none" xmlns="http://www.w3.org/2000/svg">
<g clip-path="url(#clip0_1_2223)">
<path d="M15.9283 3.02539C15.9283 -5.62007 21.3305 6.63515 19.1734 10.3785C21.3344 6.63515 34.6509 5.18629 27.1622 9.50997C34.6509 5.18629 26.7385 16.0003 22.4166 16.0003C26.7385 16.0003 34.6509 26.8085 27.1622 22.4906C34.6509 26.8142 21.3344 25.3654 19.1734 21.6221C21.3344 25.3654 15.9283 37.6206 15.9283 28.9752C15.9283 37.6206 10.5242 25.3654 12.6831 21.6221C10.5222 25.3654 -2.79432 26.8142 4.69434 22.4906C-2.79432 26.8142 5.11812 16.0003 9.44179 16.0003C5.11812 16.0003 -2.79432 5.19201 4.69434 9.50997C-2.79432 5.18629 10.5222 6.63515 12.6831 10.3785C10.5242 6.63133 15.9283 -5.62007 15.9283 3.02539Z" fill="currentColor"/>
</g>
<defs>
<clipPath id="clip0_1_2223">
<rect width="32" height="32" fill="white"/>
</clipPath>
</defs>
</svg>
