<svg width="1440" height="1440" viewBox="0 0 1440 1440" fill="none" xmlns="http://www.w3.org/2000/svg">
<mask id="mask0_2232_3698" style="mask-type:alpha" maskUnits="userSpaceOnUse" x="0" y="0" width="1440" height="1440">
<rect width="1440" height="1440" fill="url(#paint0_radial_2232_3698)"/>
</mask>
<g mask="url(#mask0_2232_3698)">
<path fill-rule="evenodd" clip-rule="evenodd" d="M59.5 419.5V360.5H0V359.5H59.5V300.5H0V299.5H59.5V240.5H0V239.5H59.5V180.5H0V179.5H59.5V120.5H0V119.5H59.5V60.4999L0 60.4999V59.4999L59.5 59.4999V0H60.5V59.4999H119.5V0H120.5V59.4999L179.5 59.4999V0H180.5V59.4999L239.5 59.4999V0H240.5V59.4999L299.5 59.5V0H300.5V59.5H359.5V0H360.5V59.5L419.5 59.5V0H420.5V59.5L479.5 59.5V0H480.5V59.5H539.5V0H540.5V59.5L599.5 59.5V0H600.5V59.5L659.5 59.5V0H660.5V59.5H719.5V0H720.5V59.5H779.5V0H780.5V59.5L839.5 59.5V0H840.5V59.5L899.5 59.5V0H900.5V59.5H959.5V0H960.5V59.5L1019.5 59.5V0H1020.5V59.5L1079.5 59.5V0H1080.5V59.5H1139.5V0H1140.5V59.5L1199.5 59.5V0H1200.5V59.5L1259.5 59.5V0H1260.5V59.5L1319.5 59.5V0H1320.5V59.5H1379.5V0H1380.5V59.5L1440 59.5V60.5L1380.5 60.5V119.5H1440V120.5H1380.5V179.5H1440V180.5H1380.5V239.5H1440V240.5H1380.5V299.5H1440V300.5H1380.5V359.5H1440V360.5H1380.5V419.5H1440V420.5H1380.5V479.5H1440V480.5H1380.5V539.5H1440V540.5H1380.5V599.5H1440V600.5H1380.5V659.5H1440V660.5H1380.5V719.5H1440V720.5H1380.5V779.5H1440V780.5H1380.5V839.5H1440V840.5H1380.5V899.5H1440V900.5H1380.5V959.5H1440V960.5H1380.5V1019.5H1440V1020.5H1380.5V1079.5H1440V1080.5H1380.5V1139.5H1440V1140.5H1380.5V1199.5H1440V1200.5H1380.5V1259.5H1440V1260.5H1380.5V1319.5H1440V1320.5H1380.5V1379.5H1440V1380.5H1380.5V1440H1379.5V1380.5H1320.5V1440H1319.5V1380.5H1260.5V1440H1259.5V1380.5H1200.5V1440H1199.5V1380.5H1140.5V1440H1139.5V1380.5H1080.5V1440H1079.5V1380.5H1020.5V1440H1019.5V1380.5H960.5V1440H959.5V1380.5H900.5V1440H899.5V1380.5H840.5V1440H839.5V1380.5H780.5V1440H779.5V1380.5H720.5V1440H719.5V1380.5H660.5V1440H659.5V1380.5H600.5V1440H599.5V1380.5H540.5V1440H539.5V1380.5H480.5V1440H479.5V1380.5H420.5V1440H419.5V1380.5H360.5V1440H359.5V1380.5H300.5V1440H299.5V1380.5H240.5V1440H239.5V1380.5H180.5V1440H179.5V1380.5H120.5V1440H119.5V1380.5H60.5V1440H59.5V1380.5H0V1379.5H59.5V1320.5H0V1319.5H59.5V1260.5H0V1259.5H59.5V1200.5H0V1199.5H59.5V1140.5H0V1139.5H59.5V1080.5H0V1079.5H59.5V1020.5H0V1019.5H59.5V960.5H0V959.5H59.5V900.5H0V899.5H59.5V840.5H0V839.5H59.5V780.5H0V779.5H59.5V720.5H0V719.5H59.5V660.5H0V659.5H59.5V600.5H0V599.5H59.5V540.5H0V539.5H59.5V480.5H0V479.5H59.5V420.5H0V419.5H59.5ZM60.5 1260.5V1319.5H119.5V1260.5H60.5ZM119.5 1259.5H60.5V1200.5H119.5V1259.5ZM120.5 1260.5V1319.5H179.5V1260.5H120.5ZM179.5 1259.5H120.5V1200.5H179.5V1259.5ZM180.5 1260.5V1319.5H239.5V1260.5H180.5ZM239.5 1259.5H180.5V1200.5H239.5V1259.5ZM240.5 1260.5V1319.5H299.5V1260.5H240.5ZM299.5 1259.5H240.5V1200.5H299.5V1259.5ZM300.5 1260.5V1319.5H359.5V1260.5H300.5ZM359.5 1259.5H300.5V1200.5H359.5V1259.5ZM360.5 1260.5V1319.5H419.5V1260.5H360.5ZM419.5 1259.5H360.5V1200.5H419.5V1259.5ZM420.5 1260.5V1319.5H479.5V1260.5H420.5ZM479.5 1259.5H420.5V1200.5H479.5V1259.5ZM480.5 1260.5V1319.5H539.5V1260.5H480.5ZM539.5 1259.5H480.5V1200.5H539.5V1259.5ZM540.5 1260.5V1319.5H599.5V1260.5H540.5ZM599.5 1259.5H540.5V1200.5H599.5V1259.5ZM600.5 1260.5V1319.5H659.5V1260.5H600.5ZM659.5 1259.5H600.5V1200.5H659.5V1259.5ZM660.5 1260.5V1319.5H719.5V1260.5H660.5ZM719.5 1259.5H660.5V1200.5H719.5V1259.5ZM720.5 1260.5V1319.5H779.5V1260.5H720.5ZM779.5 1259.5H720.5V1200.5H779.5V1259.5ZM780.5 1260.5V1319.5H839.5V1260.5H780.5ZM839.5 1259.5H780.5V1200.5H839.5V1259.5ZM840.5 1260.5V1319.5H899.5V1260.5H840.5ZM899.5 1259.5H840.5V1200.5H899.5V1259.5ZM900.5 1260.5V1319.5H959.5V1260.5H900.5ZM959.5 1259.5H900.5V1200.5H959.5V1259.5ZM960.5 1260.5V1319.5H1019.5V1260.5H960.5ZM1019.5 1259.5H960.5V1200.5H1019.5V1259.5ZM1020.5 1260.5V1319.5H1079.5V1260.5H1020.5ZM1079.5 1259.5H1020.5V1200.5H1079.5V1259.5ZM1080.5 1260.5V1319.5H1139.5V1260.5H1080.5ZM1139.5 1259.5H1080.5V1200.5H1139.5V1259.5ZM1140.5 1260.5V1319.5H1199.5V1260.5H1140.5ZM1199.5 1259.5H1140.5V1200.5H1199.5V1259.5ZM1200.5 1260.5V1319.5H1259.5V1260.5H1200.5ZM1259.5 1259.5H1200.5V1200.5H1259.5V1259.5ZM1260.5 1260.5V1319.5H1319.5V1260.5H1260.5ZM1319.5 1259.5H1260.5V1200.5H1319.5V1259.5ZM1320.5 1260.5V1319.5H1379.5V1260.5H1320.5ZM1379.5 1259.5H1320.5V1200.5H1379.5V1259.5ZM1379.5 840.5V899.5H1320.5V840.5H1379.5ZM1319.5 840.5V899.5H1260.5V840.5H1319.5ZM1319.5 900.5H1260.5V959.5H1319.5V900.5ZM1259.5 840.5V899.5H1200.5V840.5H1259.5ZM1259.5 900.5H1200.5V959.5H1259.5V900.5ZM1199.5 840.5V899.5H1140.5V840.5H1199.5ZM1199.5 900.5H1140.5V959.5H1199.5V900.5ZM1139.5 840.5V899.5H1080.5V840.5H1139.5ZM1139.5 900.5H1080.5V959.5H1139.5V900.5ZM1079.5 840.5V899.5H1020.5V840.5H1079.5ZM1079.5 900.5H1020.5V959.5H1079.5V900.5ZM1019.5 840.5V899.5H960.5V840.5H1019.5ZM1019.5 900.5H960.5V959.5H1019.5V900.5ZM959.5 840.5V899.5H900.5V840.5H959.5ZM959.5 900.5H900.5V959.5H959.5V900.5ZM899.5 840.5V899.5H840.5V840.5H899.5ZM899.5 900.5H840.5V959.5H899.5V900.5ZM839.5 840.5V899.5H780.5V840.5H839.5ZM839.5 900.5H780.5V959.5H839.5V900.5ZM779.5 840.5V899.5H720.5V840.5H779.5ZM779.5 900.5H720.5V959.5H779.5V900.5ZM719.5 840.5V899.5H660.5V840.5H719.5ZM719.5 900.5H660.5V959.5H719.5V900.5ZM659.5 840.5V899.5H600.5V840.5H659.5ZM659.5 900.5H600.5V959.5H659.5V900.5ZM599.5 840.5V899.5H540.5V840.5H599.5ZM599.5 900.5H540.5V959.5H599.5V900.5ZM539.5 840.5V899.5H480.5V840.5H539.5ZM539.5 900.5H480.5V959.5H539.5V900.5ZM479.5 840.5V899.5H420.5V840.5H479.5ZM479.5 900.5H420.5V959.5H479.5V900.5ZM419.5 840.5V899.5H360.5V840.5H419.5ZM419.5 900.5H360.5V959.5H419.5V900.5ZM359.5 840.5V899.5H300.5V840.5H359.5ZM359.5 900.5H300.5V959.5H359.5V900.5ZM299.5 840.5V899.5H240.5V840.5H299.5ZM299.5 900.5H240.5V959.5H299.5V900.5ZM239.5 840.5V899.5H180.5V840.5H239.5ZM239.5 900.5H180.5V959.5H239.5V900.5ZM179.5 840.5V899.5H120.5V840.5H179.5ZM179.5 900.5H120.5V959.5H179.5V900.5ZM119.5 840.5V899.5H60.5V840.5H119.5ZM119.5 900.5H60.5V959.5H119.5V900.5ZM1379.5 900.5H1320.5V959.5H1379.5V900.5ZM60.5 420.5V479.5H119.5V420.5H60.5ZM119.5 419.5H60.5V360.5H119.5V419.5ZM120.5 420.5V479.5H179.5V420.5H120.5ZM179.5 419.5H120.5V360.5H179.5V419.5ZM180.5 420.5V479.5H239.5V420.5H180.5ZM239.5 419.5H180.5V360.5H239.5V419.5ZM240.5 420.5V479.5H299.5V420.5H240.5ZM299.5 419.5H240.5V360.5H299.5V419.5ZM300.5 420.5V479.5H359.5V420.5H300.5ZM359.5 419.5H300.5V360.5H359.5V419.5ZM360.5 420.5V479.5H419.5V420.5H360.5ZM419.5 419.5H360.5V360.5H419.5V419.5ZM420.5 420.5V479.5H479.5V420.5H420.5ZM479.5 419.5H420.5V360.5H479.5V419.5ZM480.5 420.5V479.5H539.5V420.5H480.5ZM539.5 419.5H480.5V360.5H539.5V419.5ZM540.5 420.5V479.5H599.5V420.5H540.5ZM599.5 419.5H540.5V360.5H599.5V419.5ZM600.5 420.5V479.5H659.5V420.5H600.5ZM659.5 419.5H600.5V360.5H659.5V419.5ZM660.5 420.5V479.5H719.5V420.5H660.5ZM719.5 419.5H660.5V360.5H719.5V419.5ZM720.5 420.5V479.5H779.5V420.5H720.5ZM779.5 419.5H720.5V360.5H779.5V419.5ZM780.5 420.5V479.5H839.5V420.5H780.5ZM839.5 419.5H780.5V360.5H839.5V419.5ZM840.5 420.5V479.5H899.5V420.5H840.5ZM899.5 419.5H840.5V360.5H899.5V419.5ZM900.5 420.5V479.5H959.5V420.5H900.5ZM959.5 419.5H900.5V360.5H959.5V419.5ZM960.5 420.5V479.5H1019.5V420.5H960.5ZM1019.5 419.5H960.5V360.5H1019.5V419.5ZM1020.5 420.5V479.5H1079.5V420.5H1020.5ZM1079.5 419.5H1020.5V360.5H1079.5V419.5ZM1080.5 420.5V479.5H1139.5V420.5H1080.5ZM1139.5 419.5H1080.5V360.5H1139.5V419.5ZM1140.5 420.5V479.5H1199.5V420.5H1140.5ZM1199.5 419.5H1140.5V360.5H1199.5V419.5ZM1200.5 420.5V479.5H1259.5V420.5H1200.5ZM1259.5 419.5H1200.5V360.5H1259.5V419.5ZM1260.5 420.5V479.5H1319.5V420.5H1260.5ZM1319.5 419.5H1260.5V360.5H1319.5V419.5ZM1320.5 420.5V479.5H1379.5V420.5H1320.5ZM1379.5 419.5H1320.5V360.5H1379.5V419.5ZM1379.5 1320.5V1379.5H1320.5V1320.5H1379.5ZM1319.5 1320.5V1379.5H1260.5V1320.5H1319.5ZM1259.5 1320.5V1379.5H1200.5V1320.5H1259.5ZM1199.5 1320.5V1379.5H1140.5V1320.5H1199.5ZM1139.5 1320.5V1379.5H1080.5V1320.5H1139.5ZM1079.5 1320.5V1379.5H1020.5V1320.5H1079.5ZM1019.5 1320.5V1379.5H960.5V1320.5H1019.5ZM959.5 1320.5V1379.5H900.5V1320.5H959.5ZM899.5 1320.5V1379.5H840.5V1320.5H899.5ZM839.5 1320.5V1379.5H780.5V1320.5H839.5ZM779.5 1320.5V1379.5H720.5V1320.5H779.5ZM719.5 1320.5V1379.5H660.5V1320.5H719.5ZM659.5 1320.5V1379.5H600.5V1320.5H659.5ZM599.5 1320.5V1379.5H540.5V1320.5H599.5ZM539.5 1320.5V1379.5H480.5V1320.5H539.5ZM479.5 1320.5V1379.5H420.5V1320.5H479.5ZM419.5 1320.5V1379.5H360.5V1320.5H419.5ZM359.5 1320.5V1379.5H300.5V1320.5H359.5ZM299.5 1320.5V1379.5H240.5V1320.5H299.5ZM239.5 1320.5V1379.5H180.5V1320.5H239.5ZM179.5 1320.5V1379.5H120.5V1320.5H179.5ZM119.5 1320.5V1379.5H60.5V1320.5H119.5ZM1379.5 960.5V1019.5H1320.5V960.5H1379.5ZM1319.5 960.5V1019.5H1260.5V960.5H1319.5ZM1319.5 1020.5H1260.5V1079.5H1319.5V1020.5ZM1259.5 960.5V1019.5H1200.5V960.5H1259.5ZM1259.5 1020.5H1200.5V1079.5H1259.5V1020.5ZM1199.5 960.5V1019.5H1140.5V960.5H1199.5ZM1199.5 1020.5H1140.5V1079.5H1199.5V1020.5ZM1139.5 960.5V1019.5H1080.5V960.5H1139.5ZM1139.5 1020.5H1080.5V1079.5H1139.5V1020.5ZM1079.5 960.5V1019.5H1020.5V960.5H1079.5ZM1079.5 1020.5H1020.5V1079.5H1079.5V1020.5ZM1019.5 960.5V1019.5H960.5V960.5H1019.5ZM1019.5 1020.5H960.5V1079.5H1019.5V1020.5ZM959.5 960.5V1019.5H900.5V960.5H959.5ZM959.5 1020.5H900.5V1079.5H959.5V1020.5ZM899.5 960.5V1019.5H840.5V960.5H899.5ZM899.5 1020.5H840.5V1079.5H899.5V1020.5ZM839.5 960.5V1019.5H780.5V960.5H839.5ZM839.5 1020.5H780.5V1079.5H839.5V1020.5ZM779.5 960.5V1019.5H720.5V960.5H779.5ZM779.5 1020.5H720.5V1079.5H779.5V1020.5ZM719.5 960.5V1019.5H660.5V960.5H719.5ZM719.5 1020.5H660.5V1079.5H719.5V1020.5ZM659.5 960.5V1019.5H600.5V960.5H659.5ZM659.5 1020.5H600.5V1079.5H659.5V1020.5ZM599.5 960.5V1019.5H540.5V960.5H599.5ZM599.5 1020.5H540.5V1079.5H599.5V1020.5ZM539.5 960.5V1019.5H480.5V960.5H539.5ZM539.5 1020.5H480.5V1079.5H539.5V1020.5ZM479.5 960.5V1019.5H420.5V960.5H479.5ZM479.5 1020.5H420.5V1079.5H479.5V1020.5ZM419.5 960.5V1019.5H360.5V960.5H419.5ZM419.5 1020.5H360.5V1079.5H419.5V1020.5ZM359.5 960.5V1019.5H300.5V960.5H359.5ZM359.5 1020.5H300.5V1079.5H359.5V1020.5ZM299.5 960.5V1019.5H240.5V960.5H299.5ZM299.5 1020.5H240.5V1079.5H299.5V1020.5ZM239.5 960.5V1019.5H180.5V960.5H239.5ZM239.5 1020.5H180.5V1079.5H239.5V1020.5ZM179.5 960.5V1019.5H120.5V960.5H179.5ZM179.5 1020.5H120.5V1079.5H179.5V1020.5ZM119.5 960.5V1019.5H60.5V960.5H119.5ZM119.5 1020.5H60.5V1079.5H119.5V1020.5ZM1379.5 1020.5H1320.5V1079.5H1379.5V1020.5ZM60.5 660.5V719.5H119.5V660.5H60.5ZM119.5 659.5H60.5V600.5H119.5V659.5ZM120.5 660.5V719.5H179.5V660.5H120.5ZM179.5 659.5H120.5V600.5H179.5V659.5ZM180.5 660.5V719.5H239.5V660.5H180.5ZM239.5 659.5H180.5V600.5H239.5V659.5ZM240.5 660.5V719.5H299.5V660.5H240.5ZM299.5 659.5H240.5V600.5H299.5V659.5ZM300.5 660.5V719.5H359.5V660.5H300.5ZM359.5 659.5H300.5V600.5H359.5V659.5ZM360.5 660.5V719.5H419.5V660.5H360.5ZM419.5 659.5H360.5V600.5H419.5V659.5ZM420.5 660.5V719.5H479.5V660.5H420.5ZM479.5 659.5H420.5V600.5H479.5V659.5ZM480.5 660.5V719.5H539.5V660.5H480.5ZM539.5 659.5H480.5V600.5H539.5V659.5ZM540.5 660.5V719.5H599.5V660.5H540.5ZM599.5 659.5H540.5V600.5H599.5V659.5ZM600.5 660.5V719.5H659.5V660.5H600.5ZM659.5 659.5H600.5V600.5H659.5V659.5ZM660.5 660.5V719.5H719.5V660.5H660.5ZM719.5 659.5H660.5V600.5H719.5V659.5ZM720.5 660.5V719.5H779.5V660.5H720.5ZM779.5 659.5H720.5V600.5H779.5V659.5ZM780.5 660.5V719.5H839.5V660.5H780.5ZM839.5 659.5H780.5V600.5H839.5V659.5ZM840.5 660.5V719.5H899.5V660.5H840.5ZM899.5 659.5H840.5V600.5H899.5V659.5ZM900.5 660.5V719.5H959.5V660.5H900.5ZM959.5 659.5H900.5V600.5H959.5V659.5ZM960.5 660.5V719.5H1019.5V660.5H960.5ZM1019.5 659.5H960.5V600.5H1019.5V659.5ZM1020.5 660.5V719.5H1079.5V660.5H1020.5ZM1079.5 659.5H1020.5V600.5H1079.5V659.5ZM1080.5 660.5V719.5H1139.5V660.5H1080.5ZM1139.5 659.5H1080.5V600.5H1139.5V659.5ZM1140.5 660.5V719.5H1199.5V660.5H1140.5ZM1199.5 659.5H1140.5V600.5H1199.5V659.5ZM1200.5 660.5V719.5H1259.5V660.5H1200.5ZM1259.5 659.5H1200.5V600.5H1259.5V659.5ZM1260.5 660.5V719.5H1319.5V660.5H1260.5ZM1319.5 659.5H1260.5V600.5H1319.5V659.5ZM1320.5 660.5V719.5H1379.5V660.5H1320.5ZM1379.5 659.5H1320.5V600.5H1379.5V659.5ZM60.5 239.5V180.5H119.5V239.5H60.5ZM120.5 239.5V180.5H179.5V239.5H120.5ZM120.5 179.5H179.5V120.5H120.5V179.5ZM180.5 239.5V180.5H239.5V239.5H180.5ZM180.5 179.5H239.5V120.5H180.5V179.5ZM240.5 239.5V180.5H299.5V239.5H240.5ZM240.5 179.5H299.5V120.5L240.5 120.5V179.5ZM300.5 239.5V180.5H359.5V239.5H300.5ZM300.5 179.5H359.5V120.5H300.5V179.5ZM360.5 239.5V180.5H419.5V239.5H360.5ZM360.5 179.5H419.5V120.5H360.5V179.5ZM420.5 239.5V180.5H479.5V239.5H420.5ZM420.5 179.5H479.5V120.5L420.5 120.5V179.5ZM480.5 239.5V180.5H539.5V239.5H480.5ZM480.5 179.5H539.5V120.5H480.5V179.5ZM540.5 239.5V180.5H599.5V239.5H540.5ZM540.5 179.5H599.5V120.5H540.5V179.5ZM600.5 239.5V180.5H659.5V239.5H600.5ZM600.5 179.5H659.5V120.5L600.5 120.5V179.5ZM660.5 239.5V180.5H719.5V239.5H660.5ZM660.5 179.5H719.5V120.5H660.5V179.5ZM720.5 239.5V180.5H779.5V239.5H720.5ZM720.5 179.5H779.5V120.5H720.5V179.5ZM780.5 239.5V180.5H839.5V239.5H780.5ZM780.5 179.5H839.5V120.5L780.5 120.5V179.5ZM840.5 239.5V180.5H899.5V239.5H840.5ZM840.5 179.5H899.5V120.5H840.5V179.5ZM900.5 239.5V180.5H959.5V239.5H900.5ZM900.5 179.5H959.5V120.5H900.5V179.5ZM960.5 239.5V180.5H1019.5V239.5H960.5ZM960.5 179.5H1019.5V120.5L960.5 120.5V179.5ZM1020.5 239.5V180.5H1079.5V239.5H1020.5ZM1020.5 179.5H1079.5V120.5H1020.5V179.5ZM1080.5 239.5V180.5H1139.5V239.5H1080.5ZM1080.5 179.5H1139.5V120.5H1080.5V179.5ZM1140.5 239.5V180.5H1199.5V239.5H1140.5ZM1140.5 179.5H1199.5V120.5L1140.5 120.5V179.5ZM1200.5 239.5V180.5H1259.5V239.5H1200.5ZM1200.5 179.5H1259.5V120.5H1200.5V179.5ZM1260.5 239.5V180.5H1319.5V239.5H1260.5ZM1260.5 179.5H1319.5V120.5H1260.5V179.5ZM1320.5 239.5V180.5H1379.5V239.5H1320.5ZM1320.5 179.5H1379.5V120.5L1320.5 120.5V179.5ZM60.5 179.5H119.5V120.5L60.5 120.5V179.5ZM60.5 1140.5V1199.5H119.5V1140.5H60.5ZM119.5 1139.5H60.5V1080.5H119.5V1139.5ZM120.5 1140.5V1199.5H179.5V1140.5H120.5ZM179.5 1139.5H120.5V1080.5H179.5V1139.5ZM180.5 1140.5V1199.5H239.5V1140.5H180.5ZM239.5 1139.5H180.5V1080.5H239.5V1139.5ZM240.5 1140.5V1199.5H299.5V1140.5H240.5ZM299.5 1139.5H240.5V1080.5H299.5V1139.5ZM300.5 1140.5V1199.5H359.5V1140.5H300.5ZM359.5 1139.5H300.5V1080.5H359.5V1139.5ZM360.5 1140.5V1199.5H419.5V1140.5H360.5ZM419.5 1139.5H360.5V1080.5H419.5V1139.5ZM420.5 1140.5V1199.5H479.5V1140.5H420.5ZM479.5 1139.5H420.5V1080.5H479.5V1139.5ZM480.5 1140.5V1199.5H539.5V1140.5H480.5ZM539.5 1139.5H480.5V1080.5H539.5V1139.5ZM540.5 1140.5V1199.5H599.5V1140.5H540.5ZM599.5 1139.5H540.5V1080.5H599.5V1139.5ZM600.5 1140.5V1199.5H659.5V1140.5H600.5ZM659.5 1139.5H600.5V1080.5H659.5V1139.5ZM660.5 1140.5V1199.5H719.5V1140.5H660.5ZM719.5 1139.5H660.5V1080.5H719.5V1139.5ZM720.5 1140.5V1199.5H779.5V1140.5H720.5ZM779.5 1139.5H720.5V1080.5H779.5V1139.5ZM780.5 1140.5V1199.5H839.5V1140.5H780.5ZM839.5 1139.5H780.5V1080.5H839.5V1139.5ZM840.5 1140.5V1199.5H899.5V1140.5H840.5ZM899.5 1139.5H840.5V1080.5H899.5V1139.5ZM900.5 1140.5V1199.5H959.5V1140.5H900.5ZM959.5 1139.5H900.5V1080.5H959.5V1139.5ZM960.5 1140.5V1199.5H1019.5V1140.5H960.5ZM1019.5 1139.5H960.5V1080.5H1019.5V1139.5ZM1020.5 1140.5V1199.5H1079.5V1140.5H1020.5ZM1079.5 1139.5H1020.5V1080.5H1079.5V1139.5ZM1080.5 1140.5V1199.5H1139.5V1140.5H1080.5ZM1139.5 1139.5H1080.5V1080.5H1139.5V1139.5ZM1140.5 1140.5V1199.5H1199.5V1140.5H1140.5ZM1199.5 1139.5H1140.5V1080.5H1199.5V1139.5ZM1200.5 1140.5V1199.5H1259.5V1140.5H1200.5ZM1259.5 1139.5H1200.5V1080.5H1259.5V1139.5ZM1260.5 1140.5V1199.5H1319.5V1140.5H1260.5ZM1319.5 1139.5H1260.5V1080.5H1319.5V1139.5ZM1320.5 1140.5V1199.5H1379.5V1140.5H1320.5ZM1379.5 1139.5H1320.5V1080.5H1379.5V1139.5ZM1379.5 720.5V779.5H1320.5V720.5H1379.5ZM1319.5 720.5V779.5H1260.5V720.5H1319.5ZM1319.5 780.5H1260.5V839.5H1319.5V780.5ZM1259.5 720.5V779.5H1200.5V720.5H1259.5ZM1259.5 780.5H1200.5V839.5H1259.5V780.5ZM1199.5 720.5V779.5H1140.5V720.5H1199.5ZM1199.5 780.5H1140.5V839.5H1199.5V780.5ZM1139.5 720.5V779.5H1080.5V720.5H1139.5ZM1139.5 780.5H1080.5V839.5H1139.5V780.5ZM1079.5 720.5V779.5H1020.5V720.5H1079.5ZM1079.5 780.5H1020.5V839.5H1079.5V780.5ZM1019.5 720.5V779.5H960.5V720.5H1019.5ZM1019.5 780.5H960.5V839.5H1019.5V780.5ZM959.5 720.5V779.5H900.5V720.5H959.5ZM959.5 780.5H900.5V839.5H959.5V780.5ZM899.5 720.5V779.5H840.5V720.5H899.5ZM899.5 780.5H840.5V839.5H899.5V780.5ZM839.5 720.5V779.5H780.5V720.5H839.5ZM839.5 780.5H780.5V839.5H839.5V780.5ZM779.5 720.5V779.5H720.5V720.5H779.5ZM779.5 780.5H720.5V839.5H779.5V780.5ZM719.5 720.5V779.5H660.5V720.5H719.5ZM719.5 780.5H660.5V839.5H719.5V780.5ZM659.5 720.5V779.5H600.5V720.5H659.5ZM659.5 780.5H600.5V839.5H659.5V780.5ZM599.5 720.5V779.5H540.5V720.5H599.5ZM599.5 780.5H540.5V839.5H599.5V780.5ZM539.5 720.5V779.5H480.5V720.5H539.5ZM539.5 780.5H480.5V839.5H539.5V780.5ZM479.5 720.5V779.5H420.5V720.5H479.5ZM479.5 780.5H420.5V839.5H479.5V780.5ZM419.5 720.5V779.5H360.5V720.5H419.5ZM419.5 780.5H360.5V839.5H419.5V780.5ZM359.5 720.5V779.5H300.5V720.5H359.5ZM359.5 780.5H300.5V839.5H359.5V780.5ZM299.5 720.5V779.5H240.5V720.5H299.5ZM299.5 780.5H240.5V839.5H299.5V780.5ZM239.5 720.5V779.5H180.5V720.5H239.5ZM239.5 780.5H180.5V839.5H239.5V780.5ZM179.5 720.5V779.5H120.5V720.5H179.5ZM179.5 780.5H120.5V839.5H179.5V780.5ZM119.5 720.5V779.5H60.5V720.5H119.5ZM119.5 780.5H60.5V839.5H119.5V780.5ZM1379.5 780.5H1320.5V839.5H1379.5V780.5ZM1379.5 299.5V240.5H1320.5V299.5H1379.5ZM1320.5 300.5H1379.5V359.5H1320.5V300.5ZM1319.5 299.5V240.5H1260.5V299.5H1319.5ZM1260.5 300.5H1319.5V359.5H1260.5V300.5ZM1259.5 299.5V240.5H1200.5V299.5H1259.5ZM1200.5 300.5H1259.5V359.5H1200.5V300.5ZM1199.5 299.5V240.5H1140.5V299.5H1199.5ZM1140.5 300.5H1199.5V359.5H1140.5V300.5ZM1139.5 299.5V240.5H1080.5V299.5H1139.5ZM1080.5 300.5H1139.5V359.5H1080.5V300.5ZM1079.5 299.5V240.5H1020.5V299.5H1079.5ZM1020.5 300.5H1079.5V359.5H1020.5V300.5ZM1019.5 299.5V240.5H960.5V299.5H1019.5ZM960.5 300.5H1019.5V359.5H960.5V300.5ZM959.5 299.5V240.5H900.5V299.5H959.5ZM900.5 300.5H959.5V359.5H900.5V300.5ZM899.5 299.5V240.5H840.5V299.5H899.5ZM840.5 300.5H899.5V359.5H840.5V300.5ZM839.5 299.5V240.5H780.5V299.5H839.5ZM780.5 300.5H839.5V359.5H780.5V300.5ZM779.5 299.5V240.5H720.5V299.5H779.5ZM720.5 300.5H779.5V359.5H720.5V300.5ZM719.5 299.5V240.5H660.5V299.5H719.5ZM660.5 300.5H719.5V359.5H660.5V300.5ZM659.5 299.5V240.5H600.5V299.5H659.5ZM600.5 300.5H659.5V359.5H600.5V300.5ZM599.5 299.5V240.5H540.5V299.5H599.5ZM540.5 300.5H599.5V359.5H540.5V300.5ZM539.5 299.5V240.5H480.5V299.5H539.5ZM480.5 300.5H539.5V359.5H480.5V300.5ZM479.5 299.5V240.5H420.5V299.5H479.5ZM420.5 300.5H479.5V359.5H420.5V300.5ZM419.5 299.5V240.5H360.5V299.5H419.5ZM360.5 300.5H419.5V359.5H360.5V300.5ZM359.5 299.5V240.5H300.5V299.5H359.5ZM300.5 300.5H359.5V359.5H300.5V300.5ZM299.5 299.5V240.5H240.5V299.5H299.5ZM240.5 300.5H299.5V359.5H240.5V300.5ZM239.5 299.5V240.5H180.5V299.5H239.5ZM180.5 300.5H239.5V359.5H180.5V300.5ZM179.5 299.5V240.5H120.5V299.5H179.5ZM120.5 300.5H179.5V359.5H120.5V300.5ZM119.5 299.5V240.5H60.5V299.5H119.5ZM60.5 300.5H119.5V359.5H60.5V300.5ZM1379.5 480.5V539.5H1320.5V480.5H1379.5ZM1319.5 480.5V539.5H1260.5V480.5H1319.5ZM1319.5 540.5H1260.5V599.5H1319.5V540.5ZM1259.5 480.5V539.5H1200.5V480.5H1259.5ZM1259.5 540.5H1200.5V599.5H1259.5V540.5ZM1199.5 480.5V539.5H1140.5V480.5H1199.5ZM1199.5 540.5H1140.5V599.5H1199.5V540.5ZM1139.5 480.5V539.5H1080.5V480.5H1139.5ZM1139.5 540.5H1080.5V599.5H1139.5V540.5ZM1079.5 480.5V539.5H1020.5V480.5H1079.5ZM1079.5 540.5H1020.5V599.5H1079.5V540.5ZM1019.5 480.5V539.5H960.5V480.5H1019.5ZM1019.5 540.5H960.5V599.5H1019.5V540.5ZM959.5 480.5V539.5H900.5V480.5H959.5ZM959.5 540.5H900.5V599.5H959.5V540.5ZM899.5 480.5V539.5H840.5V480.5H899.5ZM899.5 540.5H840.5V599.5H899.5V540.5ZM839.5 480.5V539.5H780.5V480.5H839.5ZM839.5 540.5H780.5V599.5H839.5V540.5ZM779.5 480.5V539.5H720.5V480.5H779.5ZM779.5 540.5H720.5V599.5H779.5V540.5ZM719.5 480.5V539.5H660.5V480.5H719.5ZM719.5 540.5H660.5V599.5H719.5V540.5ZM659.5 480.5V539.5H600.5V480.5H659.5ZM659.5 540.5H600.5V599.5H659.5V540.5ZM599.5 480.5V539.5H540.5V480.5H599.5ZM599.5 540.5H540.5V599.5H599.5V540.5ZM539.5 480.5V539.5H480.5V480.5H539.5ZM539.5 540.5H480.5V599.5H539.5V540.5ZM479.5 480.5V539.5H420.5V480.5H479.5ZM479.5 540.5H420.5V599.5H479.5V540.5ZM419.5 480.5V539.5H360.5V480.5H419.5ZM419.5 540.5H360.5V599.5H419.5V540.5ZM359.5 480.5V539.5H300.5V480.5H359.5ZM359.5 540.5H300.5V599.5H359.5V540.5ZM299.5 480.5V539.5H240.5V480.5H299.5ZM299.5 540.5H240.5V599.5H299.5V540.5ZM239.5 480.5V539.5H180.5V480.5H239.5ZM239.5 540.5H180.5V599.5H239.5V540.5ZM179.5 480.5V539.5H120.5V480.5H179.5ZM179.5 540.5H120.5V599.5H179.5V540.5ZM119.5 480.5V539.5H60.5V480.5H119.5ZM119.5 540.5H60.5V599.5H119.5V540.5ZM1379.5 540.5H1320.5V599.5H1379.5V540.5ZM1379.5 60.5H1320.5V119.5L1379.5 119.5V60.5ZM1319.5 60.5L1260.5 60.5V119.5H1319.5V60.5ZM1259.5 60.5L1200.5 60.5V119.5H1259.5V60.5ZM1199.5 60.5L1140.5 60.5V119.5L1199.5 119.5V60.5ZM1139.5 60.5H1080.5V119.5H1139.5V60.5ZM1079.5 60.5L1020.5 60.5V119.5H1079.5V60.5ZM1019.5 60.5L960.5 60.5V119.5L1019.5 119.5V60.5ZM959.5 60.5H900.5V119.5H959.5V60.5ZM899.5 60.5L840.5 60.5V119.5H899.5V60.5ZM839.5 60.5L780.5 60.5V119.5L839.5 119.5V60.5ZM779.5 60.5H720.5V119.5H779.5V60.5ZM719.5 60.5H660.5V119.5H719.5V60.5ZM659.5 60.5L600.5 60.5V119.5L659.5 119.5V60.5ZM599.5 60.5L540.5 60.5V119.5H599.5V60.5ZM539.5 60.5H480.5V119.5H539.5V60.5ZM479.5 60.5L420.5 60.5V119.5L479.5 119.5V60.5ZM419.5 60.5L360.5 60.5V119.5H419.5V60.5ZM359.5 60.5H300.5V119.5H359.5V60.5ZM299.5 60.5L240.5 60.4999V119.5L299.5 119.5V60.5ZM239.5 60.4999L180.5 60.4999V119.5H239.5V60.4999ZM179.5 60.4999L120.5 60.4999V119.5H179.5V60.4999ZM119.5 60.4999H60.5V119.5L119.5 119.5V60.4999Z" fill="#DCDAE2"/>
</g>
<defs>
<radialGradient id="paint0_radial_2232_3698" cx="0" cy="0" r="1" gradientUnits="userSpaceOnUse" gradientTransform="translate(720 720) rotate(90) scale(720 720)">
<stop stop-color="white"/>
<stop offset="1" stop-color="white" stop-opacity="0"/>
</radialGradient>
</defs>
</svg>
